<svg width="430" height="226" viewBox="0 0 430 226" fill="none" xmlns="http://www.w3.org/2000/svg">
<path d="M48.9913 38.4314C47.5822 47.1607 49.1839 55.6809 53.0312 62.9242" stroke="#F4C064" stroke-width="2" stroke-miterlimit="10" stroke-linecap="round" stroke-linejoin="round"/>
<path d="M51.3855 38.4535C51.1764 39.7469 49.96 40.6221 48.672 40.4129C47.3841 40.2038 46.5035 38.9874 46.7126 37.6994C46.9218 36.406 48.4134 33.8026 49.7068 34.0118C50.9947 34.2209 51.5947 37.1601 51.3855 38.4535Z" fill="#C4773D"/>
<path d="M48.672 40.4129C47.3841 40.2038 46.5035 38.9874 46.7126 37.6994C46.9218 36.406 48.4133 33.8026 49.7068 34.0118L48.672 40.4129Z" fill="#F4C064"/>
<path d="M48.4079 41.6182C47.4942 42.5539 47.5162 44.051 48.4519 44.9646C49.3876 45.8783 50.8902 45.8563 51.7983 44.9206C52.712 43.9849 53.9119 41.2329 52.9707 40.3192C52.0405 39.4111 49.3215 40.6825 48.4079 41.6182Z" fill="#F4C064"/>
<path d="M48.4573 44.9703C49.393 45.884 50.8956 45.862 51.8038 44.9263C52.7174 43.9906 53.9173 41.2386 52.9761 40.325L48.4573 44.9703Z" fill="#C4773D"/>
<path d="M48.9583 41.6623C49.7123 42.73 49.4591 44.2051 48.3914 44.9592C47.3236 45.7132 45.8485 45.46 45.089 44.3923C44.3349 43.3245 43.5809 40.4184 44.6486 39.6643C45.7164 38.9103 48.2042 40.5945 48.9583 41.6623Z" fill="#C4773D"/>
<path d="M48.3914 44.9646C47.3236 45.7187 45.8485 45.4655 45.089 44.3977C44.3349 43.33 43.5809 40.4238 44.6486 39.6698L48.3914 44.9646Z" fill="#F4C064"/>
<path d="M48.3198 47.491C47.4611 48.4762 47.5602 49.9733 48.5454 50.832C49.5306 51.6906 51.0277 51.5915 51.8863 50.6063C52.745 49.6211 53.7962 46.8085 52.8165 45.9499C51.8258 45.0913 49.1784 46.5058 48.3198 47.491Z" fill="#F4C064"/>
<path d="M48.5399 50.832C49.5251 51.6906 51.0222 51.5916 51.8809 50.6063C52.7395 49.6211 53.7907 46.8086 52.811 45.95L48.5399 50.832Z" fill="#C4773D"/>
<path d="M48.8647 47.5076C49.6738 48.5313 49.4976 50.0229 48.4739 50.832C47.4502 51.6411 45.9586 51.4649 45.1495 50.4412C44.3404 49.412 43.4322 46.5499 44.456 45.7408C45.4852 44.9317 48.0556 46.4783 48.8647 47.5076Z" fill="#C4773D"/>
<path d="M48.4739 50.8319C47.4502 51.641 45.9586 51.4649 45.1495 50.4411C44.3404 49.4119 43.4323 46.5498 44.456 45.7407L48.4739 50.8319Z" fill="#F4C064"/>
<path d="M49.8279 53.3638C49.1069 54.4535 49.4041 55.9231 50.4939 56.6441C51.5837 57.3652 53.0532 57.0679 53.7742 55.9782C54.4953 54.8884 55.1668 51.9602 54.077 51.2392C52.9872 50.5182 50.5489 52.274 49.8279 53.3638Z" fill="#F4C064"/>
<path d="M50.4939 56.6442C51.5837 57.3652 53.0532 57.068 53.7742 55.9782C54.4953 54.8884 55.1668 51.9603 54.077 51.2393L50.4939 56.6442Z" fill="#C4773D"/>
<path d="M50.3728 53.3033C51.314 54.2115 51.336 55.7141 50.4278 56.6497C49.5197 57.5909 48.0226 57.6129 47.0814 56.7048C46.1402 55.7966 44.8633 53.0776 45.7714 52.142C46.6796 51.2008 49.4316 52.3951 50.3728 53.3033Z" fill="#C4773D"/>
<path d="M50.4278 56.6497C49.5196 57.5909 48.0225 57.6129 47.0814 56.7048C46.1402 55.7966 44.8633 53.0776 45.7714 52.142L50.4278 56.6497Z" fill="#F4C064"/>
<path d="M14 52C22.2118 52 29.3212 56.7141 32.7734 63.583C37.4936 60.6775 43.0506 59 49 59C66.1208 59 80 72.8792 80 90C80 107.121 66.1208 121 49 121C33.0894 121 19.9801 109.013 18.2061 93.5781C16.8471 93.8544 15.4405 94 14 94C2.40202 94 -7 84.598 -7 73C-7 61.402 2.40202 52 14 52Z" fill="#7CA135"/>
<path d="M70.5 75C81.2696 75 90 83.7304 90 94.5C90 105.27 81.2696 114 70.5 114C65.3057 114 60.5866 111.968 57.0918 108.657C54.72 115.827 47.9647 121 40 121C35.6444 121 31.6505 119.452 28.5371 116.878C24.3183 121.846 18.0283 125 11 125C-1.70255 125 -12 114.703 -12 102C-12 89.2975 -1.70255 79 11 79C18.5975 79 25.3334 82.6845 29.5215 88.3633C32.473 86.2465 36.0908 85 40 85C44.4654 85 48.5502 86.6271 51.6963 89.3193C53.9655 81.0645 61.5243 75 70.5 75Z" fill="#A0CE46"/>
<path d="M30.1632 66.3301C25.1315 78.4553 27.343 91.7601 34.8154 101.451" stroke="#F4C064" stroke-width="2" stroke-miterlimit="10" stroke-linecap="round" stroke-linejoin="round"/>
<path d="M32.7906 65.9459C32.305 67.1175 30.9662 67.6673 29.7946 67.1816C28.6231 66.696 28.0686 65.3546 28.5589 64.1857C29.0446 63.0141 31.036 60.8969 32.203 61.3799C33.3692 61.8748 33.2736 64.779 32.7906 65.9459Z" fill="#C4773D"/>
<path d="M29.792 67.1862C28.6204 66.7006 28.066 65.3591 28.5563 64.1902C29.042 63.0187 31.0334 60.9015 32.2003 61.3845L29.792 67.1862Z" fill="#F4C064"/>
<path d="M29.2764 68.2606C28.2093 68.9365 27.8904 70.352 28.571 71.4217C29.247 72.4887 30.6625 72.8076 31.7322 72.1271C32.8019 71.4465 34.5477 69.126 33.8671 68.0563C33.1885 66.9939 30.3434 67.5846 29.2764 68.2606Z" fill="#F4C064"/>
<path d="M28.5684 71.4263C29.2443 72.4934 30.6598 72.8123 31.7295 72.1317C32.7992 71.4511 34.545 69.1306 33.8645 68.0609L28.5684 71.4263Z" fill="#C4773D"/>
<path d="M29.7845 68.4246C30.2558 69.6011 29.6841 70.9322 28.5076 71.4035C27.3312 71.8748 26 71.3031 25.5261 70.1312C25.0549 68.9548 24.9978 66.0486 26.1716 65.582C27.3481 65.1107 29.3133 67.2482 29.7845 68.4246Z" fill="#C4773D"/>
<path d="M28.5077 71.4036C27.3312 71.8749 26.0001 71.3032 25.5261 70.1314C25.0549 68.9549 24.9978 66.0487 26.1716 65.5821L28.5077 71.4036Z" fill="#F4C064"/>
<path d="M27.8739 73.7693C26.8416 74.5023 26.6007 75.932 27.3336 76.9643C28.0665 77.9965 29.4963 78.2375 30.5285 77.5046C31.5608 76.7716 33.1808 74.36 32.4478 73.3278C31.7149 72.2955 28.9061 73.0364 27.8739 73.7693Z" fill="#F4C064"/>
<path d="M27.3383 76.9669C28.0712 77.9992 29.5009 78.2402 30.5332 77.5072C31.5654 76.7743 33.1854 74.3627 32.4525 73.3304L27.3383 76.9669Z" fill="#C4773D"/>
<path d="M28.3908 73.9078C28.921 75.0568 28.4239 76.4186 27.2749 76.9488C26.1259 77.479 24.764 76.9819 24.2312 75.8375C23.701 74.6885 23.4859 71.7896 24.6303 71.2568C25.7819 70.7219 27.8559 72.7561 28.3908 73.9078Z" fill="#C4773D"/>
<path d="M27.2748 76.9489C26.1258 77.4791 24.764 76.982 24.2311 75.8376C23.7009 74.6886 23.4858 71.7897 24.6302 71.2569L27.2748 76.9489Z" fill="#F4C064"/>
<path d="M27.9799 79.6384C27.0568 80.5021 27.0054 81.9551 27.869 82.8782C28.7327 83.8014 30.1857 83.8528 31.1088 82.9892C32.032 82.1255 33.3224 79.5175 32.4541 78.5917C31.5932 77.6639 28.9031 78.7748 27.9799 79.6384Z" fill="#F4C064"/>
<path d="M27.869 82.8782C28.7326 83.8013 30.1857 83.8527 31.1088 82.9891C32.0319 82.1255 33.3223 79.5174 32.4541 78.5916L27.869 82.8782Z" fill="#C4773D"/>
<path d="M28.5084 79.7035C29.1889 80.7732 28.8773 82.1868 27.8076 82.8673C26.7425 83.5506 25.3244 83.2363 24.6438 82.1666C23.9632 81.0969 23.3652 78.2538 24.4349 77.5732C25.502 76.8972 27.8251 78.6384 28.5084 79.7035Z" fill="#C4773D"/>
<path d="M27.8076 82.8673C26.7425 83.5505 25.3244 83.2362 24.6438 82.1665C23.9632 81.0968 23.3652 78.2537 24.4349 77.5731L27.8076 82.8673Z" fill="#F4C064"/>
<path d="M9.53543 75.1725C14.4622 82.176 21.3244 86.9992 28.8847 89.42" stroke="#F4C064" stroke-width="2" stroke-miterlimit="10" stroke-linecap="round" stroke-linejoin="round"/>
<path d="M11.2119 73.5688C11.9422 74.6057 11.6893 76.0347 10.6551 76.7604C9.62092 77.486 8.18924 77.2378 7.46357 76.2036C6.7379 75.1694 6.01423 72.3521 7.04843 71.6265C8.07802 70.8981 10.4816 72.532 11.2119 73.5688Z" fill="#C4773D"/>
<path d="M10.6525 76.7651C9.61829 77.4907 8.1866 77.2425 7.46094 76.2083C6.73527 75.1741 6.01159 72.3568 7.0458 71.6311L10.6525 76.7651Z" fill="#F4C064"/>
<path d="M11.2864 77.7769C11.2867 79.0444 12.3138 80.0681 13.5814 80.0678C14.8489 80.0675 15.8726 79.0404 15.8723 77.7728C15.872 76.5053 14.8438 73.7891 13.5763 73.7894C12.3087 73.7897 11.2861 76.5093 11.2864 77.7769Z" fill="#F4C064"/>
<path d="M13.5814 80.0679C14.8489 80.0676 15.8726 79.0405 15.8723 77.7729C15.872 76.5054 14.8438 73.7892 13.5763 73.7895L13.5814 80.0679Z" fill="#C4773D"/>
<path d="M11.6983 77.4365C12.9424 77.6687 13.7658 78.8639 13.5336 80.108C13.3014 81.3521 12.1061 82.1755 10.8621 81.9433C9.618 81.7111 7.13251 80.2084 7.36012 78.9616C7.59234 77.7176 10.4543 77.2043 11.6983 77.4365Z" fill="#C4773D"/>
<path d="M13.5336 80.108C13.3014 81.352 12.1061 82.1755 10.8621 81.9432C9.61801 81.711 7.13252 80.2083 7.36013 78.9616L13.5336 80.108Z" fill="#F4C064"/>
<path d="M15.1896 81.9071C15.2593 83.1716 16.3376 84.1387 17.6021 84.069C18.8667 83.9993 19.8338 82.921 19.764 81.6565C19.6943 80.3919 18.5219 77.7339 17.26 77.799C16 77.8714 15.1245 80.6452 15.1896 81.9071Z" fill="#F4C064"/>
<path d="M17.6068 84.0716C18.8714 84.0019 19.8384 82.9237 19.7687 81.6591C19.699 80.3946 18.5266 77.7366 17.2646 77.8017L17.6068 84.0716Z" fill="#C4773D"/>
<path d="M15.5812 81.5487C16.8341 81.7122 17.7199 82.8634 17.5563 84.1164C17.3928 85.3694 16.2416 86.2551 14.9886 86.0916C13.7356 85.928 11.1683 84.5565 11.3318 83.3035C11.498 82.046 14.3236 81.3825 15.5812 81.5487Z" fill="#C4773D"/>
<path d="M17.5563 84.1163C17.3928 85.3692 16.2416 86.255 14.9886 86.0915C13.7357 85.9279 11.1683 84.5564 11.3318 83.3034L17.5563 84.1163Z" fill="#F4C064"/>
<path d="M20.208 84.9582C20.4437 86.2017 21.6455 87.0186 22.889 86.7829C24.1325 86.5473 24.9495 85.3455 24.7138 84.1019C24.4781 82.8584 22.9632 80.378 21.7197 80.6137C20.4735 80.854 19.9724 83.7147 20.208 84.9582Z" fill="#F4C064"/>
<path d="M22.8817 86.7849C24.1252 86.5492 24.9422 85.3474 24.7065 84.1039C24.4708 82.8604 22.9559 80.3799 21.7123 80.6156L22.8817 86.7849Z" fill="#C4773D"/>
<path d="M20.5429 84.5486C21.8086 84.5411 22.8402 85.5674 22.8406 86.8349C22.8435 88.0979 21.8245 89.1276 20.5542 89.1326C19.2913 89.1355 16.5664 88.1222 16.5614 86.8519C16.5585 85.589 19.28 84.5516 20.5429 84.5486Z" fill="#C4773D"/>
<path d="M22.8406 86.8349C22.8435 88.0979 21.8245 89.1276 20.5542 89.1325C19.2913 89.1355 16.5664 88.1221 16.5615 86.8519L22.8406 86.8349Z" fill="#F4C064"/>
<path d="M29 98C37.2118 98 44.3212 102.714 47.7734 109.583C52.4936 106.677 58.0506 105 64 105C81.1208 105 95 118.879 95 136C95 153.121 81.1208 167 64 167C48.0894 167 34.9801 155.013 33.2061 139.578C31.8471 139.854 30.4405 140 29 140C27.5508 140 26.1361 139.853 24.7695 139.573C23.2865 149.437 14.7773 157 4.5 157C-6.82184 157 -16 147.822 -16 136.5C-16 125.178 -6.82184 116 4.5 116C5.75204 116 6.97787 116.112 8.16797 116.327C9.4809 105.991 18.3075 98 29 98Z" fill="#BBD884"/>
<path d="M24.5 129C41.897 129 56 143.103 56 160.5C56 177.897 41.897 192 24.5 192C7.10303 192 -7 177.897 -7 160.5C-7 143.103 7.10303 129 24.5 129Z" fill="#BBD884"/>
<path d="M402.332 13.8237C409.2 22.761 410.322 34.286 406.279 43.9834" stroke="#F4C064" stroke-width="2" stroke-miterlimit="10" stroke-linecap="round" stroke-linejoin="round"/>
<path d="M400.068 14.089C400.731 14.9526 401.964 15.1111 402.827 14.448C403.691 13.7849 403.853 12.5493 403.186 11.6889C402.523 10.8252 400.401 9.51198 399.541 10.1718C398.684 10.8414 399.408 13.2286 400.068 14.089Z" fill="#C4773D"/>
<path d="M402.831 14.4512C403.694 13.7881 403.856 12.5524 403.19 11.692C402.527 10.8284 400.405 9.51513 399.544 10.175L402.831 14.4512Z" fill="#F4C064"/>
<path d="M403.497 15.2275C404.532 15.551 405.111 16.654 404.784 17.6923C404.461 18.7274 403.358 19.3064 402.319 18.9797C401.281 18.653 399.318 17.1165 399.644 16.0782C399.971 15.0464 402.462 14.9041 403.497 15.2275Z" fill="#F4C064"/>
<path d="M404.788 17.6956C404.464 18.7306 403.361 19.3096 402.323 18.9829C401.284 18.6562 399.321 17.1198 399.648 16.0815L404.788 17.6956Z" fill="#C4773D"/>
<path d="M403.112 15.4767C402.983 16.5571 403.752 17.5339 404.833 17.6633C405.913 17.7927 406.89 17.0229 407.023 15.9457C407.152 14.8654 406.554 12.4426 405.476 12.3165C404.396 12.1871 403.241 14.3963 403.112 15.4767Z" fill="#C4773D"/>
<path d="M404.833 17.6632C405.913 17.7926 406.89 17.0228 407.023 15.9456C407.152 14.8653 406.554 12.4425 405.476 12.3164L404.833 17.6632Z" fill="#F4C064"/>
<path d="M405.884 19.4844C406.903 19.8629 407.42 20.995 407.042 22.0139C406.664 23.0328 405.531 23.5503 404.513 23.1719C403.494 22.7934 401.614 21.1535 401.993 20.1346C402.371 19.1157 404.865 19.106 405.884 19.4844Z" fill="#F4C064"/>
<path d="M407.039 22.017C406.66 23.0359 405.528 23.5535 404.509 23.175C403.49 22.7966 401.611 21.1566 401.99 20.1377L407.039 22.017Z" fill="#C4773D"/>
<path d="M405.486 19.714C405.302 20.7847 406.017 21.8036 407.087 21.988C408.158 22.1723 409.177 21.4575 409.365 20.3901C409.549 19.3194 409.083 16.8675 408.016 16.6799C406.942 16.4923 405.674 18.6401 405.486 19.714Z" fill="#C4773D"/>
<path d="M407.087 21.988C408.158 22.1724 409.177 21.4576 409.365 20.3901C409.549 19.3195 409.083 16.8676 408.016 16.68L407.087 21.988Z" fill="#F4C064"/>
<path d="M407.1 24.3751C408.058 24.8861 408.423 26.0797 407.912 27.0372C407.401 27.9946 406.208 28.3601 405.25 27.8491C404.293 27.338 402.643 25.4619 403.157 24.5012C403.665 23.5405 406.143 23.864 407.1 24.3751Z" fill="#F4C064"/>
<path d="M407.912 27.0373C407.401 27.9947 406.208 28.3602 405.25 27.8492C404.293 27.3381 402.643 25.462 403.157 24.5013L407.912 27.0373Z" fill="#C4773D"/>
<path d="M406.677 24.5466C406.35 25.5849 406.922 26.6879 407.961 27.0146C408.996 27.3445 410.102 26.7688 410.429 25.7304C410.755 24.6921 410.62 22.2015 409.581 21.8748C408.546 21.5513 407.006 23.5115 406.677 24.5466Z" fill="#C4773D"/>
<path d="M407.961 27.0146C408.996 27.3445 410.102 26.7687 410.429 25.7304C410.755 24.6921 410.62 22.2014 409.581 21.8747L407.961 27.0146Z" fill="#F4C064"/>
<path d="M421.404 16.5729C418.874 23.4756 414.255 29.0003 408.524 32.6878" stroke="#F4C064" stroke-width="2" stroke-miterlimit="10" stroke-linecap="round" stroke-linejoin="round"/>
<path d="M419.657 15.6155C419.282 16.6376 419.809 17.7665 420.828 18.1385C421.847 18.5105 422.979 17.9864 423.351 16.9675C423.723 15.9486 423.697 13.4515 422.678 13.0795C421.663 12.7043 420.032 14.5933 419.657 15.6155Z" fill="#C4773D"/>
<path d="M420.831 18.1417C421.85 18.5137 422.982 17.9897 423.354 16.9708C423.726 15.9519 423.7 13.4547 422.681 13.0827L420.831 18.1417Z" fill="#F4C064"/>
<path d="M420.53 19.1218C420.812 20.1731 420.188 21.2502 419.136 21.5316C418.085 21.8131 417.008 21.1888 416.727 20.1375C416.445 19.0863 416.694 16.6053 417.745 16.3239C418.797 16.0425 420.249 18.0706 420.53 19.1218Z" fill="#F4C064"/>
<path d="M419.136 21.5316C418.085 21.8131 417.008 21.1888 416.727 20.1375C416.445 19.0863 416.694 16.6053 417.745 16.3239L419.136 21.5316Z" fill="#C4773D"/>
<path d="M420.113 18.9309C419.133 19.3999 418.716 20.5741 419.185 21.5541C419.654 22.5342 420.828 22.9515 421.808 22.4825C422.788 22.0135 424.516 20.215 424.05 19.2317C423.581 18.2516 421.093 18.4618 420.113 18.9309Z" fill="#C4773D"/>
<path d="M419.185 21.5542C419.654 22.5343 420.828 22.9516 421.808 22.4826C422.788 22.0136 424.516 20.2151 424.05 19.2318L419.185 21.5542Z" fill="#F4C064"/>
<path d="M418.211 23.4141C418.434 24.4783 417.755 25.5199 416.691 25.7431C415.627 25.9663 414.585 25.287 414.362 24.2228C414.139 23.1586 414.521 20.6938 415.582 20.4674C416.642 20.2474 417.985 22.3532 418.211 23.4141Z" fill="#F4C064"/>
<path d="M416.688 25.7463C415.624 25.9695 414.582 25.2902 414.359 24.226C414.136 23.1618 414.517 20.697 415.578 20.4706L416.688 25.7463Z" fill="#C4773D"/>
<path d="M417.807 23.2039C416.804 23.6179 416.325 24.7694 416.74 25.7722C417.154 26.7749 418.305 27.2536 419.308 26.8396C420.311 26.4256 422.135 24.7177 421.721 23.7149C421.304 22.709 418.813 22.7866 417.807 23.2039Z" fill="#C4773D"/>
<path d="M416.74 25.7721C417.154 26.7748 418.305 27.2535 419.308 26.8395C420.311 26.4255 422.135 24.7176 421.721 23.7149L416.74 25.7721Z" fill="#F4C064"/>
<path d="M414.728 27.0595C414.808 28.1431 413.993 29.0876 412.91 29.1685C411.826 29.2493 410.882 28.4342 410.801 27.3506C410.72 26.267 411.425 23.8734 412.509 23.7925C413.595 23.7149 414.647 25.9759 414.728 27.0595Z" fill="#F4C064"/>
<path d="M412.916 29.1686C411.833 29.2495 410.888 28.4343 410.807 27.3507C410.726 26.2671 411.431 23.8735 412.515 23.7927L412.916 29.1686Z" fill="#C4773D"/>
<path d="M414.359 26.7944C413.308 27.0693 412.68 28.1497 412.961 29.201C413.24 30.249 414.313 30.8765 415.368 30.5983C416.416 30.3201 418.451 28.8743 418.172 27.8198C417.894 26.7718 415.407 26.5162 414.359 26.7944Z" fill="#C4773D"/>
<path d="M412.961 29.2009C413.24 30.2489 414.313 30.8764 415.368 30.5982C416.416 30.3201 418.451 28.8742 418.172 27.8197L412.961 29.2009Z" fill="#F4C064"/>
<path d="M392.5 37C397.967 37 402.88 39.3721 406.267 43.1426C410.378 40.5197 415.262 39 420.5 39C435.136 39 447 50.8645 447 65.5C447 80.1355 435.136 92 420.5 92C408.758 92 398.802 84.3627 395.323 73.7852C394.403 73.9261 393.46 74 392.5 74C391.651 74 390.816 73.9418 389.997 73.8311C389.997 73.8873 390 73.9436 390 74C390 86.7025 379.703 97 367 97C354.297 97 344 86.7025 344 74C344 61.2975 354.297 51 367 51C369.551 51 372.004 51.4152 374.297 52.1816C375.86 43.5479 383.416 37 392.5 37Z" fill="#7CA135"/>
<path d="M382.554 64C368.993 64.0002 358 74.9932 358 88.5537C358 102.114 368.993 113.108 382.554 113.108C387.743 113.108 392.555 111.497 396.521 108.75C399.354 116.881 407.086 122.716 416.183 122.716C427.68 122.716 437 113.396 437 101.898C437 90.4014 427.68 81.0812 416.183 81.0811C412.716 81.0811 409.447 81.9294 406.571 83.4287C404.214 72.3282 394.357 64 382.554 64Z" fill="#A0CE46"/>
<path d="M406.519 63.5522C405.338 75.1156 400.405 85.3891 393.056 93.2772" stroke="#F4C064" stroke-width="2" stroke-miterlimit="10" stroke-linecap="round" stroke-linejoin="round"/>
<path d="M403.471 62.7656C403.296 64.4791 404.543 66.0042 406.25 66.1768C407.956 66.3494 409.488 65.1045 409.661 63.398C409.835 61.6845 408.827 57.8714 407.114 57.6969C405.407 57.5243 403.645 61.0521 403.471 62.7656Z" fill="#C4773D"/>
<path d="M406.25 66.1768C407.956 66.3495 409.488 65.1046 409.661 63.3981C409.835 61.6846 408.827 57.8715 407.114 57.697L406.25 66.1768Z" fill="#F4C064"/>
<path d="M406.175 67.7971C407.017 69.296 406.48 71.1895 404.981 72.0312C403.482 72.873 401.581 72.3338 400.747 70.8368C399.905 69.3379 399.318 65.4353 400.823 64.5954C402.313 63.7588 405.333 66.2982 406.175 67.7971Z" fill="#F4C064"/>
<path d="M404.972 72.0365C403.473 72.8783 401.572 72.3391 400.738 70.8421C399.896 69.3432 399.309 65.4406 400.815 64.6007L404.972 72.0365Z" fill="#C4773D"/>
<path d="M405.461 67.6658C404.141 68.765 403.96 70.7241 405.059 72.0449C406.159 73.3656 408.118 73.546 409.445 72.4486C410.766 71.3493 412.712 67.9159 411.613 66.5951C410.514 65.2744 406.782 66.5665 405.461 67.6658Z" fill="#C4773D"/>
<path d="M405.058 72.0519C406.157 73.3727 408.116 73.5531 409.444 72.4557C410.764 71.3564 412.71 67.923 411.611 66.6022L405.058 72.0519Z" fill="#F4C064"/>
<path d="M404.289 75.2841C405.044 76.8272 404.409 78.6944 402.866 79.4494C401.323 80.2045 399.455 79.5693 398.7 78.0262C397.945 76.4831 397.567 72.5543 399.103 71.7974C400.654 71.0442 403.534 73.741 404.289 75.2841Z" fill="#F4C064"/>
<path d="M402.873 79.4514C401.33 80.2064 399.462 79.5713 398.707 78.0282C397.952 76.4851 397.574 72.5562 399.11 71.7993L402.873 79.4514Z" fill="#C4773D"/>
<path d="M403.591 75.1196C402.216 76.1442 401.932 78.0981 402.957 79.4737C403.981 80.8494 405.935 81.1332 407.311 80.1086C408.688 79.077 410.815 75.7519 409.79 74.3762C408.759 72.9987 404.969 74.088 403.591 75.1196Z" fill="#C4773D"/>
<path d="M402.956 79.4738C403.981 80.8494 405.935 81.1333 407.311 80.1086C408.688 79.077 410.815 75.7519 409.79 74.3763L402.956 79.4738Z" fill="#F4C064"/>
<path d="M400.376 82.2278C400.921 83.8569 400.043 85.6217 398.414 86.1664C396.785 86.7112 395.02 85.8338 394.476 84.2048C393.931 82.5757 394.074 78.6293 395.703 78.0845C397.333 77.5398 399.831 80.5987 400.376 82.2278Z" fill="#F4C064"/>
<path d="M398.414 86.1665C396.785 86.7112 395.02 85.8339 394.476 84.2048C393.931 82.5757 394.074 78.6293 395.703 78.0846L398.414 86.1665Z" fill="#C4773D"/>
<path d="M399.705 81.9656C398.201 82.7986 397.661 84.699 398.496 86.196C399.329 87.7001 401.222 88.2374 402.727 87.4045C404.231 86.5715 406.777 83.5536 405.942 82.0565C405.109 80.5525 401.209 81.1327 399.705 81.9656Z" fill="#C4773D"/>
<path d="M398.496 86.1961C399.329 87.7002 401.223 88.2375 402.727 87.4046C404.231 86.5716 406.777 83.5537 405.942 82.0566L398.496 86.1961Z" fill="#F4C064"/>
<path d="M424.5 88C435.27 88 444 96.7304 444 107.5C444 113.263 441.499 118.442 437.523 122.012C454.512 131.5 466 149.659 466 170.5C466 201.152 441.152 226 410.5 226C379.848 226 355 201.152 355 170.5C355 163.155 356.427 156.144 359.019 149.728C351.315 146.011 346 138.126 346 129C346 116.297 356.297 106 369 106C371.551 106 374.004 106.415 376.297 107.182C377.86 98.5479 385.416 92 394.5 92C399.68 92 404.362 94.1304 407.721 97.5615C411.118 91.8374 417.361 88 424.5 88Z" fill="#BBD884"/>
</svg>
