<svg preserveAspectRatio="none" width="100%" height="100%" overflow="visible" style="display: block;" viewBox="0 0 14.0001 39.0222" fill="none" xmlns="http://www.w3.org/2000/svg">
<g id="Group">
<path id="Vector" d="M7.43897 5.82542C9.29117 17.3004 7.18573 28.5005 2.12834 38.022" stroke="var(--stroke-0, #F4C064)" stroke-width="2" stroke-miterlimit="10" stroke-linecap="round" stroke-linejoin="round"/>
<path id="Vector_2" d="M4.29161 5.85442C4.56654 7.55469 6.16552 8.70508 7.85855 8.43015C9.55159 8.15521 10.7092 6.55623 10.4343 4.8632C10.1593 3.16293 8.19861 -0.259312 6.49834 0.0156247C4.80531 0.290562 4.01667 4.15415 4.29161 5.85442Z" fill="var(--fill-0, #C4773D)"/>
<path id="Vector_3" d="M7.85855 8.43015C9.55158 8.15521 10.7092 6.55623 10.4343 4.8632C10.1593 3.16293 8.1986 -0.259312 6.49833 0.0156247L7.85855 8.43015Z" fill="var(--fill-0, #F4C064)"/>
<path id="Vector_4" d="M8.20583 10.0146C9.40687 11.2446 9.37793 13.2125 8.14795 14.4136C6.91796 15.6146 4.94276 15.5857 3.74895 14.3557C2.54791 13.1257 0.97064 9.50811 2.20786 8.30706C3.4306 7.11326 7.00479 8.78459 8.20583 10.0146Z" fill="var(--fill-0, #F4C064)"/>
<path id="Vector_5" d="M8.14079 14.421C6.91081 15.622 4.9356 15.5931 3.7418 14.3631C2.54076 13.1331 0.963486 9.5155 2.2007 8.31446L8.14079 14.421Z" fill="var(--fill-0, #C4773D)"/>
<path id="Vector_6" d="M7.48235 10.0724C6.49113 11.4761 6.82395 13.4151 8.22758 14.4063C9.6312 15.3975 11.5702 15.0647 12.5687 13.6611C13.5599 12.2575 14.5511 8.4373 13.1475 7.44607C11.7439 6.45485 8.47358 8.66882 7.48235 10.0724Z" fill="var(--fill-0, #C4773D)"/>
<path id="Vector_7" d="M8.22755 14.4136C9.63118 15.4048 11.5702 15.072 12.5687 13.6684C13.5599 12.2647 14.5511 8.44456 13.1475 7.45334L8.22755 14.4136Z" fill="var(--fill-0, #F4C064)"/>
<path id="Vector_8" d="M8.32164 17.7346C9.45033 19.0297 9.3201 20.9976 8.025 22.1263C6.7299 23.255 4.76193 23.1248 3.63324 21.8297C2.50455 20.5346 1.12263 16.8374 2.41049 15.7087C3.71283 14.58 7.19295 16.4395 8.32164 17.7346Z" fill="var(--fill-0, #F4C064)"/>
<path id="Vector_9" d="M8.03224 22.1264C6.73714 23.2551 4.76917 23.1249 3.64048 21.8298C2.51179 20.5347 1.12987 16.8375 2.41774 15.7088L8.03224 22.1264Z" fill="var(--fill-0, #C4773D)"/>
<path id="Vector_10" d="M7.60537 17.7563C6.54179 19.102 6.77332 21.0628 8.11906 22.1263C9.46481 23.1899 11.4255 22.9584 12.4891 21.6126C13.5527 20.2597 14.7465 16.4974 13.4008 15.4338C12.0478 14.3702 8.66894 16.4033 7.60537 17.7563Z" fill="var(--fill-0, #C4773D)"/>
<path id="Vector_11" d="M8.11901 22.1263C9.46475 23.1899 11.4255 22.9584 12.4891 21.6126C13.5526 20.2596 14.7464 16.4973 13.4007 15.4338L8.11901 22.1263Z" fill="var(--fill-0, #F4C064)"/>
<path id="Vector_12" d="M6.33919 25.4545C7.287 26.8871 6.8963 28.8189 5.46373 29.7667C4.03117 30.7145 2.09937 30.3238 1.15156 28.8912C0.203754 27.4586 -0.678939 23.6095 0.753628 22.6617C2.18619 21.7139 5.39138 24.0219 6.33919 25.4545Z" fill="var(--fill-0, #F4C064)"/>
<path id="Vector_13" d="M5.46373 29.7667C4.03117 30.7145 2.09937 30.3238 1.15156 28.8912C0.203754 27.4586 -0.678939 23.6095 0.753628 22.6617L5.46373 29.7667Z" fill="var(--fill-0, #C4773D)"/>
<path id="Vector_14" d="M5.6229 25.375C4.38569 26.5688 4.35674 28.544 5.55055 29.774C6.74436 31.0112 8.71233 31.0402 9.94954 29.8464C11.1868 28.6526 12.8653 25.0784 11.6715 23.8484C10.4777 22.6112 6.86012 24.1812 5.6229 25.375Z" fill="var(--fill-0, #C4773D)"/>
<path id="Vector_15" d="M5.55057 29.774C6.74437 31.0112 8.71234 31.0402 9.94956 29.8464C11.1868 28.6525 12.8653 25.0784 11.6715 23.8484L5.55057 29.774Z" fill="var(--fill-0, #F4C064)"/>
</g>
</svg>
