<svg width="343" height="56" viewBox="0 0 343 56" fill="none" xmlns="http://www.w3.org/2000/svg">
<path d="M269.045 0C271.494 2.64676e-05 273.419 0.75018 274.819 2.25C276.219 3.7 276.92 5.4752 276.92 7.5752V47.4004C276.92 49.5501 276.169 51.3247 274.67 52.7246C273.22 54.1246 271.394 54.8252 269.194 54.8252C266.794 54.8251 264.819 54.1245 263.269 52.7246C261.77 51.3247 261.019 49.5501 261.019 47.4004V32.4746H247.069V47.4004C247.069 49.5502 246.319 51.3247 244.819 52.7246C243.369 54.1246 241.494 54.8252 239.194 54.8252C236.894 54.8251 234.995 54.1245 233.495 52.7246C231.995 51.3247 231.245 49.5502 231.245 47.4004V40.3486C231.072 43.6069 230.185 46.3076 228.578 48.4502C226.778 50.8001 224.278 52.525 221.078 53.625C217.878 54.725 214.128 55.2754 209.828 55.2754C207.028 55.2754 204.203 55.0001 201.353 54.4502C198.553 53.8502 195.952 53.0004 193.552 51.9004C191.203 50.7505 189.303 49.3752 187.853 47.7754C187.557 47.4383 187.292 47.0894 187.056 46.7314C187.058 46.9025 187.063 47.0754 187.063 47.25C187.063 49.7 186.388 51.6748 185.038 53.1748C183.738 54.6248 181.788 55.3496 179.188 55.3496C176.588 55.3496 174.588 54.6248 173.188 53.1748C171.838 51.6748 171.163 49.7 171.163 47.25C171.163 44.5 170.713 42.3246 169.813 40.7246C168.963 39.0748 167.813 37.875 166.363 37.125C164.913 36.3751 163.338 36 161.638 36H157.964V47.7754C157.964 49.925 157.213 51.6998 155.714 53.0996C154.264 54.4995 152.388 55.2001 150.089 55.2002C147.789 55.2002 145.888 54.4996 144.388 53.0996C142.939 51.6997 142.214 49.9252 142.214 47.7754V8.09961C142.214 5.89979 142.939 4.04972 144.388 2.5498C145.838 1.04996 147.739 0.299805 150.089 0.299805C152.588 0.299893 154.513 1.05002 155.863 2.5498C157.263 3.99981 157.964 5.8002 157.964 7.9502V21.0752L158.788 21.2246L170.038 5.3252C172.038 2.4752 174.213 0.875394 176.563 0.525391C178.913 0.125398 181.038 0.674847 182.938 2.1748C184.188 3.12479 185.013 4.40004 185.413 6C185.813 7.59993 185.688 9.2997 185.038 11.0996C184.388 12.8996 183.088 14.6002 181.138 16.2002L168.613 26.3252V27.9004C170.213 27.9004 172.088 28.1 174.238 28.5C176.388 28.9 178.339 29.8002 180.089 31.2002C181.488 32.2501 182.688 33.45 183.688 34.7998C184.654 36.0416 185.426 37.5597 186.011 39.3516C186.412 37.8311 187.175 36.5381 188.302 35.4746C190.052 33.8246 192.103 33.0504 194.453 33.1504C196.303 33.2004 198.153 33.5997 200.003 34.3496C201.853 35.0496 203.728 35.7502 205.628 36.4502C207.578 37.1502 209.528 37.5 211.478 37.5C213.428 37.5 214.778 37.25 215.528 36.75C216.278 36.25 216.653 35.5746 216.653 34.7246C216.653 33.7248 216.128 32.8999 215.078 32.25C214.028 31.6001 212.703 31.1 211.103 30.75L207.427 29.8496C203.628 28.9497 200.228 27.9495 197.228 26.8496C194.228 25.6996 191.853 24.1996 190.103 22.3496C188.403 20.4497 187.553 17.9252 187.552 14.7754C187.552 11.3254 188.503 8.525 190.403 6.375C192.303 4.1751 194.878 2.57519 198.128 1.5752C201.378 0.575216 205.003 0.0752153 209.003 0.0751953C213.102 0.0751953 216.703 0.4997 219.802 1.34961C222.902 2.19961 225.303 3.42539 227.003 5.02539C228.753 6.62538 229.628 8.57503 229.628 10.875C229.628 13.325 228.953 15.2504 227.603 16.6504C226.303 18.0003 224.553 18.6747 222.353 18.6748C220.903 18.6748 219.378 18.4248 217.778 17.9248C216.228 17.4248 214.578 16.95 212.828 16.5C211.128 16 209.303 15.75 207.353 15.75C205.603 15.75 204.278 16.0252 203.378 16.5752C202.478 17.0751 202.028 17.7499 202.028 18.5996C202.028 19.6496 202.628 20.4248 203.828 20.9248C205.028 21.4248 207.003 22.0246 209.753 22.7246L213.953 23.7002C217.403 24.5502 220.428 25.5754 223.028 26.7754C225.628 27.9754 227.653 29.5501 229.103 31.5C230.375 33.2109 231.089 35.3839 231.245 38.0186V7.72461C231.245 5.52478 231.97 3.69992 233.42 2.25C234.87 0.750042 236.77 0 239.12 0C241.62 6.40843e-05 243.57 0.750083 244.969 2.25C246.369 3.7 247.069 5.4752 247.069 7.5752V21.4502H261.019V7.72461C261.019 5.5249 261.744 3.69988 263.194 2.25C264.644 0.750001 266.595 0 269.045 0ZM117.202 0C122.552 1.22639e-05 127.052 1.19967 130.702 3.59961C134.402 5.94961 137.202 9.2248 139.102 13.4248C141.002 17.5747 141.952 22.3249 141.952 27.6748C141.952 33.0747 141.002 37.85 139.102 42C137.202 46.15 134.402 49.4 130.702 51.75C127.052 54.1 122.552 55.2754 117.202 55.2754C111.852 55.2754 107.327 54.1 103.627 51.75C99.9268 49.4 97.1273 46.1499 95.2273 42C93.96 39.2319 93.1171 36.1855 92.6951 32.8613C92.2731 36.1855 91.4311 39.232 90.1638 42C88.2638 46.1499 85.4643 49.4 81.7644 51.75C78.1144 54.1 73.6143 55.2754 68.2644 55.2754C62.9144 55.2754 58.3892 54.1 54.6892 51.75C50.9892 49.4 48.1888 46.15 46.2888 42C44.3889 37.85 43.4392 33.0747 43.4392 27.6748C43.4392 27.3087 43.444 26.9454 43.4529 26.585C43.0548 28.0132 42.5241 29.2773 41.8533 30.375C40.2033 33.075 38.0279 34.9752 35.3279 36.0752C32.6281 37.1751 29.7032 37.7246 26.5535 37.7246H16.2029V47.0996C16.2029 49.6996 15.5033 51.6754 14.1033 53.0254C12.7533 54.3753 10.9528 55.0498 8.70288 55.0498H8.62769C6.17799 55.0497 4.22797 54.3752 2.77808 53.0254C1.37808 51.6754 0.678467 49.6996 0.678467 47.0996V36.5254C0.678467 31.2256 1.47798 27.2002 3.07788 24.4502C4.67783 21.7003 6.70318 19.7254 9.15308 18.5254L8.77808 17.0996H7.50269C5.20291 17.0995 3.37798 16.3747 2.02808 14.9248C0.728163 13.4248 0.0526838 11.3995 0.00268555 8.84961C-0.0472339 6.34999 0.603166 4.32526 1.95288 2.77539C3.35278 1.2255 5.20291 0.450302 7.50269 0.450195H27.2283C32.2782 0.450218 36.3781 1.97541 39.5281 5.02539C42.728 8.0254 44.3279 12.7755 44.3279 19.2754C44.7964 17.2082 45.4496 15.2579 46.2888 13.4248C48.1888 9.2248 50.9892 5.94961 54.6892 3.59961C58.3892 1.19966 62.9145 0 68.2644 0C73.6143 1.91088e-05 78.1145 1.19967 81.7644 3.59961C85.4643 5.94955 88.2638 9.22496 90.1638 13.4248C91.431 16.1926 92.273 19.2278 92.6951 22.5293C93.1171 19.2277 93.9601 16.1926 95.2273 13.4248C97.1273 9.22496 99.9268 5.94955 103.627 3.59961C107.327 1.19965 111.852 0 117.202 0ZM285.685 0.299805C288.185 0.299831 290.135 1.04999 291.535 2.5498C292.985 3.99981 293.71 5.8002 293.71 7.9502V47.7754C293.71 49.925 292.935 51.6997 291.385 53.0996C289.886 54.4996 287.985 55.2002 285.685 55.2002C283.385 55.2002 281.51 54.4996 280.06 53.0996C278.61 51.6997 277.886 49.9252 277.885 47.7754V8.09961C277.886 5.89979 278.585 4.04972 279.985 2.5498C281.435 1.04986 283.335 0.299805 285.685 0.299805ZM305.947 0.299805C308.697 0.299827 311.022 1.02481 312.922 2.47461C314.822 3.92459 316.296 6.47507 317.346 10.125L325.447 37.7998H326.647V9C326.647 6.3502 327.322 4.27536 328.672 2.77539C330.022 1.22539 331.947 0.450195 334.447 0.450195C337.047 0.450221 338.971 1.22542 340.221 2.77539C341.521 4.27539 342.172 6.35 342.172 9V42.9004C342.172 47.1002 341.247 50.2003 339.397 52.2002C337.547 54.2002 334.946 55.2002 331.596 55.2002C328.197 55.2001 325.547 54.2998 323.647 52.5C321.747 50.7 320.297 48.0498 319.297 44.5498L313.971 26.3252C313.871 25.8252 313.672 25.3746 313.372 24.9746C313.122 24.5249 312.772 24.2998 312.322 24.2998C311.772 24.2998 311.397 24.5249 311.197 24.9746C310.997 25.3746 310.897 25.8252 310.897 26.3252V46.5C310.897 49.0998 310.247 51.1746 308.947 52.7246C307.647 54.2746 305.722 55.0498 303.172 55.0498C300.672 55.0498 298.771 54.2746 297.471 52.7246C296.172 51.1747 295.522 49.0997 295.522 46.5V11.3252C295.522 8.72531 295.997 6.62536 296.947 5.02539C297.947 3.37539 299.222 2.1748 300.772 1.4248C302.372 0.674912 304.097 0.299805 305.947 0.299805ZM68.2644 17.9248C67.0618 17.9248 65.9413 17.9564 64.9031 18.0176C63.954 19.8459 62.7437 23.5021 63.614 27.2979C63.8222 28.2062 63.2548 29.111 62.3464 29.3193C61.4381 29.5276 60.5332 28.9601 60.325 28.0518C59.4893 24.4069 60.1406 20.9419 61.0447 18.4512C60.053 18.6304 59.1843 18.8541 58.4392 19.125C56.2392 19.875 54.7644 20.9002 54.0144 22.2002C53.2645 23.4501 52.8895 24.8748 52.8894 26.4746C52.8894 28.0246 53.2644 29.5004 54.0144 30.9004C54.7645 32.2502 56.2394 33.3503 58.4392 34.2002C60.6392 35.0002 63.9144 35.4004 68.2644 35.4004C72.6143 35.4004 75.8644 35.0002 78.0144 34.2002C80.2142 33.3503 81.6892 32.2502 82.4392 30.9004C83.1892 29.5004 83.5642 28.0246 83.5642 26.4746C83.5641 24.8748 83.1891 23.4501 82.4392 22.2002C81.6892 20.9002 80.2143 19.875 78.0144 19.125C77.3332 18.8715 76.5414 18.6585 75.6394 18.4854C74.7176 20.3901 73.661 23.8742 74.489 27.4854C74.6972 28.3937 74.1298 29.2985 73.2214 29.5068C72.3131 29.7151 71.4082 29.1476 71.2 28.2393C70.2963 24.2978 71.1349 20.5681 72.1482 18.0518C70.9692 17.9677 69.6746 17.9248 68.2644 17.9248ZM117.202 17.9248C115.999 17.9248 114.879 17.9564 113.841 18.0176C112.892 19.8459 111.681 23.5021 112.552 27.2979C112.76 28.2062 112.192 29.111 111.284 29.3193C110.376 29.5276 109.471 28.9601 109.262 28.0518C108.427 24.4069 109.078 20.9419 109.982 18.4512C108.991 18.6303 108.122 18.8541 107.377 19.125C105.177 19.875 103.702 20.9002 102.952 22.2002C102.202 23.4501 101.827 24.8748 101.827 26.4746C101.827 28.0246 102.202 29.5004 102.952 30.9004C103.702 32.2502 105.177 33.3503 107.377 34.2002C109.577 35.0002 112.852 35.4004 117.202 35.4004C121.552 35.4004 124.802 35.0002 126.952 34.2002C129.152 33.3503 130.627 32.2502 131.377 30.9004C132.127 29.5004 132.502 28.0246 132.502 26.4746C132.502 24.8748 132.127 23.4501 131.377 22.2002C130.627 20.9002 129.152 19.875 126.952 19.125C126.271 18.8715 125.479 18.6585 124.577 18.4854C123.655 20.3901 122.599 23.8742 123.427 27.4854C123.635 28.3937 123.067 29.2985 122.159 29.5068C121.251 29.7151 120.346 29.1476 120.137 28.2393C119.234 24.2978 120.072 20.5681 121.086 18.0518C119.907 17.9677 118.612 17.9248 117.202 17.9248ZM18.1531 14.7754C17.0531 14.7754 16.2779 14.9246 15.8279 15.2246C15.4279 15.5246 15.2283 16.2504 15.2283 17.4004V23.25C15.2283 24.3498 15.4281 25.0747 15.8279 25.4248C16.2779 25.7748 17.0531 25.9502 18.1531 25.9502H25.1277C27.2274 25.9502 28.7529 25.4752 29.7029 24.5254C30.6528 23.5254 31.1277 22.1251 31.1277 20.3252C31.1277 18.5252 30.6529 17.1502 29.7029 16.2002C28.7529 15.2502 27.2277 14.7754 25.1277 14.7754H18.1531Z" fill="#FF9F46"/>
</svg>
