<svg width="24" height="24" viewBox="0 0 24 24" fill="none" xmlns="http://www.w3.org/2000/svg">
<path d="M12.0001 1.98999C7.59009 1.98999 4.00009 5.57999 4.00009 9.98999C3.97009 16.43 11.1201 21.59 11.4201 21.81C11.5901 21.93 11.8001 22 12.0001 22C12.2001 22 12.4101 21.94 12.5801 21.81C12.8801 21.59 20.0301 16.44 20.0001 9.98999C20.0001 5.57999 16.4101 1.98999 12.0001 1.98999ZM12.0001 13.99C9.79009 13.99 8.00009 12.2 8.00009 9.98999C8.00009 7.77999 9.79009 5.98999 12.0001 5.98999C14.2101 5.98999 16.0001 7.77999 16.0001 9.98999C16.0001 12.2 14.2101 13.99 12.0001 13.99Z" fill="white"/>
</svg>
