<svg width="151" height="151" viewBox="0 0 151 151" fill="none" xmlns="http://www.w3.org/2000/svg">
<path d="M75.4635 5.97971C75.4635 2.54682 72.6758 -0.262706 69.2545 0.0196905C54.2004 1.26228 39.812 7.0016 27.9953 16.5631C14.5625 27.4322 5.26671 42.5821 1.6612 59.4812C-1.94432 76.3802 0.358867 94.0048 8.18589 109.41C16.0129 124.815 28.8897 137.067 44.6644 144.12C60.4392 151.172 78.1564 152.597 94.8555 148.157C111.555 143.716 126.224 133.68 136.413 119.724C146.601 105.768 151.692 88.7377 150.834 71.4796C150.079 56.2978 144.761 41.7484 135.648 29.7017C133.577 26.9639 129.624 26.76 127.066 29.0492C124.508 31.3385 124.318 35.252 126.344 38.0231C133.583 47.9219 137.804 59.7594 138.418 72.097C139.134 86.512 134.882 100.736 126.372 112.393C117.862 124.05 105.609 132.434 91.661 136.142C77.7128 139.851 62.9142 138.661 49.7382 132.771C36.5621 126.88 25.8066 116.646 19.269 103.779C12.7314 90.9115 10.8076 76.1903 13.8191 62.0751C16.8307 47.96 24.5951 35.3058 35.8151 26.2272C45.4179 18.4571 57.0541 13.7089 69.2575 12.5017C72.6737 12.1637 75.4635 9.41259 75.4635 5.97971Z" fill="#FB7459"/>
</svg>
