<svg preserveAspectRatio="none" width="100%" height="100%" overflow="visible" style="display: block;" viewBox="0 0 150.927 150.691" fill="none" xmlns="http://www.w3.org/2000/svg">
<path id="Ellipse 293" d="M75.4635 5.9796C75.4635 2.54672 72.6757 -0.26281 69.2545 0.0195859C54.2004 1.26218 39.812 7.0015 27.9953 16.563C14.5625 27.4321 5.26669 42.582 1.66117 59.4811C-1.94434 76.3801 0.358843 94.0047 8.18587 109.41C16.0129 124.815 28.8896 137.067 44.6644 144.119C60.4392 151.172 78.1564 152.597 94.8555 148.156C111.555 143.716 126.224 133.679 136.413 119.723C146.601 105.767 151.692 88.7375 150.834 71.4795C150.079 56.2977 144.761 41.7483 135.648 29.7015C133.577 26.9638 129.624 26.7599 127.066 29.0491V29.0491C124.508 31.3384 124.318 35.2519 126.344 38.023C133.583 47.9218 137.804 59.7593 138.418 72.0969C139.134 86.5119 134.882 100.736 126.372 112.393C117.862 124.05 105.609 132.434 91.6609 136.142C77.7128 139.851 62.9142 138.661 49.7381 132.77C36.5621 126.88 25.8066 116.646 19.269 103.779C12.7313 90.9114 10.8076 76.1902 13.8191 62.075C16.8307 47.9599 24.5951 35.3057 35.815 26.2271C45.4179 18.457 57.0541 13.7088 69.2575 12.5016C72.6737 12.1636 75.4635 9.41249 75.4635 5.9796V5.9796Z" fill="var(--fill-0, #FB7459)"/>
</svg>
