<svg width="467" height="293" viewBox="-16 0 467 293" fill="none" xmlns="http://www.w3.org/2000/svg">
<path d="M431.5 0C442.27 0 451 8.73045 451 19.5C451 30.2696 442.27 39 431.5 39C430.995 39 430.495 38.9791 430 38.9414V293H0V58.5029C-9.157 56.4518 -16 48.2758 -16 38.5C-16 27.1782 -6.82184 18 4.5 18C5.75204 18 6.97787 18.1122 8.16797 18.3271C9.4809 7.99123 18.3075 0 29 0C37.2118 0 44.3212 4.71409 47.7734 11.583C52.4936 8.67748 58.0506 7 64 7C80.7862 7 94.4545 20.342 94.9824 37H353.348C355.241 26.2043 364.662 18 376 18C378.551 18 381.004 18.4152 383.297 19.1816C384.86 10.5479 392.416 4 401.5 4C406.68 4 411.362 6.1304 414.721 9.56152C418.118 3.83742 424.361 0 431.5 0ZM417.023 32.5645C415.926 34.2539 414.559 35.7516 412.985 37H422.89C420.661 35.9012 418.672 34.3898 417.023 32.5645Z" fill="#BBD884"/>
</svg>
