<svg preserveAspectRatio="none" width="100%" height="100%" overflow="visible" style="display: block;" viewBox="0 0 29.8438 48.6609" fill="none" xmlns="http://www.w3.org/2000/svg">
<g id="Group">
<path id="Vector" d="M29.8407 0.559376C29.9523 1.23415 27.0598 2.25828 23.381 2.84213C19.7023 3.42598 16.6302 3.35419 16.5186 2.67942C16.407 2.00464 19.2995 0.980512 22.9782 0.396664C26.657 -0.19197 29.729 -0.115399 29.8407 0.559376Z" fill="var(--fill-0, #E7B97B)"/>
<path id="Vector_2" d="M28.1663 11.0878C28.2779 11.7626 23.9683 13.0116 18.5375 13.8778C13.1116 14.744 8.61757 14.8924 8.50595 14.2176C8.39432 13.5428 12.704 12.2938 18.1347 11.4276C23.5655 10.5614 28.0547 10.4082 28.1663 11.0878Z" fill="var(--fill-0, #E7B97B)"/>
<path id="Vector_3" d="M27.2345 22.3723C27.4092 23.43 22.0318 25.1576 15.2325 26.2439C8.43315 27.3255 2.77916 27.3494 2.60444 26.2918C2.42973 25.2389 7.80709 23.5065 14.6064 22.4202C21.4106 21.3386 27.0646 21.3147 27.2345 22.3723Z" fill="var(--fill-0, #E7B97B)"/>
<path id="Vector_4" d="M0.00312512 48.0999C-0.108499 47.4252 2.78401 46.401 6.46275 45.8172C10.1415 45.2333 13.2136 45.3051 13.3252 45.9799C13.4368 46.6547 10.5443 47.6788 6.86556 48.2627C3.18198 48.8513 0.109896 48.7795 0.00312512 48.0999Z" fill="var(--fill-0, #E7B97B)"/>
<path id="Vector_5" d="M1.67748 37.5763C1.56586 36.9015 5.88036 35.6525 11.3063 34.7863C16.737 33.9249 21.2262 33.7717 21.3378 34.4465C21.4495 35.1213 17.1398 36.3703 11.7091 37.2365C6.27833 38.098 1.78425 38.2511 1.67748 37.5763Z" fill="var(--fill-0, #E7B97B)"/>
</g>
</svg>
