<svg preserveAspectRatio="none" width="100%" height="100%" overflow="visible" style="display: block;" viewBox="0 0 24.9491 9.10203" fill="none" xmlns="http://www.w3.org/2000/svg">
<g id="Group">
<path id="Vector" d="M3.44623 2.87436C10.1158 5.96669 17.2885 6.60712 23.9489 5.16159" stroke="var(--stroke-0, #F4C064)" stroke-width="2" stroke-miterlimit="10" stroke-linecap="round" stroke-linejoin="round"/>
<path id="Vector_2" d="M4.00435 0.962267C4.99244 1.41971 5.41786 2.59077 4.96041 3.57428C4.50297 4.55779 3.33191 4.98779 2.3484 4.53034C1.36489 4.0729 -0.382547 2.28886 0.0748986 1.30535C0.527769 0.321844 3.01627 0.504822 4.00435 0.962267Z" fill="var(--fill-0, #C4773D)"/>
<path id="Vector_3" d="M4.96041 3.57885C4.50297 4.56236 3.33191 4.99236 2.3484 4.53491C1.36489 4.07747 -0.382547 2.29343 0.0748986 1.30992L4.96041 3.57885Z" fill="var(--fill-0, #F4C064)"/>
<path id="Vector_4" d="M5.86613 4.05915C6.41049 5.00149 7.61357 5.3217 8.55591 4.77734C9.49825 4.23298 9.81846 3.0299 9.2741 2.08757C8.72974 1.14523 6.79932 -0.432958 5.85698 0.111402C4.91465 0.655762 5.32177 3.11682 5.86613 4.05915Z" fill="var(--fill-0, #F4C064)"/>
<path id="Vector_5" d="M8.55592 4.77738C9.49826 4.23302 9.81847 3.02994 9.27411 2.0876C8.72975 1.14527 6.79933 -0.432919 5.857 0.111441L8.55592 4.77738Z" fill="var(--fill-0, #C4773D)"/>
<path id="Vector_6" d="M6.02621 3.62914C7.05088 3.26776 8.1762 3.80297 8.53758 4.82765C8.89896 5.85233 8.36375 6.97764 7.33908 7.33903C6.3144 7.70041 3.82132 7.65009 3.45536 6.62541C3.09398 5.60073 5.00153 3.99053 6.02621 3.62914Z" fill="var(--fill-0, #C4773D)"/>
<path id="Vector_7" d="M8.53757 4.82766C8.89895 5.85234 8.36374 6.97765 7.33906 7.33903C6.31438 7.70042 3.82131 7.6501 3.45535 6.62542L8.53757 4.82766Z" fill="var(--fill-0, #F4C064)"/>
<path id="Vector_8" d="M10.5412 5.45433C11.1359 6.36465 12.3527 6.62082 13.263 6.02614C14.1733 5.43146 14.4295 4.21465 13.8348 3.30434C13.2401 2.39402 11.2273 0.921045 10.317 1.51115C9.41128 2.10583 9.95107 4.54401 10.5412 5.45433Z" fill="var(--fill-0, #F4C064)"/>
<path id="Vector_9" d="M13.2676 6.02614C14.1779 5.43146 14.4341 4.21465 13.8394 3.30434C13.2447 2.39402 11.2319 0.921045 10.3216 1.51115L13.2676 6.02614Z" fill="var(--fill-0, #C4773D)"/>
<path id="Vector_10" d="M10.6785 5.01983C11.6803 4.60356 12.833 5.0793 13.2493 6.0811C13.6656 7.08291 13.1898 8.23567 12.188 8.65195C11.1862 9.06822 8.68857 9.15056 8.2723 8.14876C7.85602 7.14238 9.67208 5.43611 10.6785 5.01983Z" fill="var(--fill-0, #C4773D)"/>
<path id="Vector_11" d="M13.2493 6.08104C13.6655 7.08284 13.1898 8.2356 12.188 8.65188C11.1862 9.06815 8.68854 9.15049 8.27227 8.14869L13.2493 6.08104Z" fill="var(--fill-0, #F4C064)"/>
<path id="Vector_12" d="M15.5822 5.56873C16.2913 6.39213 17.5355 6.48362 18.3589 5.77458C19.1823 5.06554 19.2738 3.82128 18.5648 2.99788C17.8557 2.17448 15.6646 0.980548 14.8412 1.68959C14.0178 2.4032 14.8732 4.74532 15.5822 5.56873Z" fill="var(--fill-0, #F4C064)"/>
<path id="Vector_13" d="M18.3544 5.77916C19.1778 5.07012 19.2693 3.82586 18.5602 3.00246C17.8512 2.17906 15.66 0.985128 14.8366 1.69417L18.3544 5.77916Z" fill="var(--fill-0, #C4773D)"/>
<path id="Vector_14" d="M15.6555 5.12044C16.5933 4.5715 17.8009 4.89171 18.3453 5.83405C18.8896 6.77181 18.574 7.9749 17.6317 8.52383C16.6939 9.06819 14.2328 9.48447 13.6839 8.54213C13.1395 7.60437 14.7177 5.6648 15.6555 5.12044Z" fill="var(--fill-0, #C4773D)"/>
<path id="Vector_15" d="M18.3453 5.83406C18.8896 6.77182 18.574 7.9749 17.6317 8.52383C16.6939 9.06819 14.2328 9.48447 13.6839 8.54213L18.3453 5.83406Z" fill="var(--fill-0, #F4C064)"/>
</g>
</svg>
