<svg preserveAspectRatio="none" width="100%" height="100%" overflow="visible" style="display: block;" viewBox="0 0 26.639 34.4038" fill="none" xmlns="http://www.w3.org/2000/svg">
<g id="Group">
<path id="Vector" d="M4.04915 5.31358C5.75416 18.3302 14.3218 28.7467 25.6388 33.4035" stroke="var(--stroke-0, #F4C064)" stroke-width="2" stroke-miterlimit="10" stroke-linecap="round" stroke-linejoin="round"/>
<path id="Vector_2" d="M6.13241 3.66711C6.29759 4.92455 5.41312 6.0701 4.15568 6.23528C2.89824 6.40045 1.74736 5.51598 1.58751 4.25854C1.42234 3.0011 2.08836 0.171857 3.34047 0.00668528C4.59791 -0.147831 5.96724 2.415 6.13241 3.66711Z" fill="var(--fill-0, #C4773D)"/>
<path id="Vector_3" d="M4.1557 6.24059C2.89826 6.40577 1.74738 5.5213 1.58753 4.26386C1.42236 3.00642 2.08838 0.177176 3.34049 0.0120042L4.1557 6.24059Z" fill="var(--fill-0, #F4C064)"/>
<path id="Vector_4" d="M4.2463 7.42877C3.66021 8.54768 4.09179 9.933 5.21602 10.5191C6.33493 11.1052 7.72025 10.6736 8.30634 9.54937C8.89244 8.42514 9.24409 5.54261 8.11986 4.95652C7.00095 4.37575 4.8324 6.30987 4.2463 7.42877Z" fill="var(--fill-0, #F4C064)"/>
<path id="Vector_5" d="M5.21606 10.5245C6.33497 11.1106 7.72028 10.679 8.30638 9.55476C8.89247 8.43052 9.24413 5.548 8.1199 4.96191L5.21606 10.5245Z" fill="var(--fill-0, #C4773D)"/>
<path id="Vector_6" d="M4.76845 7.3169C5.76481 8.10013 5.93531 9.53873 5.15208 10.5351C4.36884 11.5315 2.93024 11.702 1.93388 10.924C0.937521 10.1408 -0.565013 7.65257 0.218223 6.66154C1.00146 5.66518 3.77209 6.53366 4.76845 7.3169Z" fill="var(--fill-0, #C4773D)"/>
<path id="Vector_7" d="M5.15213 10.5351C4.3689 11.5315 2.9303 11.702 1.93394 10.9241C0.937578 10.1409 -0.564956 7.65262 0.21828 6.66158L5.15213 10.5351Z" fill="var(--fill-0, #F4C064)"/>
<path id="Vector_8" d="M5.78616 12.9008C5.25867 14.0517 5.76485 15.4104 6.91573 15.9379C8.0666 16.4654 9.42528 15.9592 9.95276 14.8083C10.4802 13.6574 10.6774 10.7589 9.52651 10.2314C8.37563 9.70395 6.31365 11.75 5.78616 12.9008Z" fill="var(--fill-0, #F4C064)"/>
<path id="Vector_9" d="M6.92102 15.9378C8.0719 16.4653 9.43057 15.9591 9.95806 14.8082C10.4855 13.6573 10.6827 10.7588 9.53181 10.2313L6.92102 15.9378Z" fill="var(--fill-0, #C4773D)"/>
<path id="Vector_10" d="M6.30297 12.7623C7.33662 13.4922 7.58705 14.9202 6.85709 15.9538C6.12714 16.9875 4.6992 17.2379 3.66554 16.5133C2.63188 15.7833 0.996143 13.3803 1.72077 12.3467C2.45072 11.3077 5.26398 12.0323 6.30297 12.7623Z" fill="var(--fill-0, #C4773D)"/>
<path id="Vector_11" d="M6.8571 15.9539C6.12714 16.9875 4.6992 17.238 3.66554 16.5133C2.63188 15.7834 0.996145 13.3804 1.72077 12.3467L6.8571 15.9539Z" fill="var(--fill-0, #F4C064)"/>
<path id="Vector_12" d="M8.81253 17.9306C8.44489 19.1401 9.12689 20.4242 10.3364 20.7918C11.5459 21.1595 12.8299 20.4775 13.1976 19.268C13.5652 18.0585 13.3787 15.1546 12.1639 14.787C10.9544 14.414 9.18017 16.7211 8.81253 17.9306Z" fill="var(--fill-0, #F4C064)"/>
<path id="Vector_13" d="M10.3363 20.7918C11.5458 21.1594 12.8299 20.4774 13.1975 19.2679C13.5652 18.0584 13.3787 15.1546 12.1639 14.787L10.3363 20.7918Z" fill="var(--fill-0, #C4773D)"/>
<path id="Vector_14" d="M9.3027 17.7228C10.4269 18.3089 10.8638 19.6888 10.2777 20.8131C9.69698 21.9373 8.31167 22.3742 7.18743 21.7881C6.06319 21.202 4.12375 19.0388 4.70985 17.9146C5.29594 16.7957 8.17846 17.142 9.3027 17.7228Z" fill="var(--fill-0, #C4773D)"/>
<path id="Vector_15" d="M10.2777 20.813C9.69695 21.9373 8.31164 22.3742 7.1874 21.7881C6.06317 21.202 4.12372 19.0387 4.70982 17.9145L10.2777 20.813Z" fill="var(--fill-0, #F4C064)"/>
</g>
</svg>
