<svg preserveAspectRatio="none" width="100%" height="100%" overflow="visible" style="display: block;" viewBox="0 0 142 55" fill="none" xmlns="http://www.w3.org/2000/svg">
<g id="Levels">
<g id="Battery">
<rect id="Border" opacity="0.35" x="82.5" y="23.9259" width="24" height="12.2407" rx="3.8" stroke="var(--stroke-0, #717067)"/>
<path id="Cap" opacity="0.4" d="M108 28.2956V32.4465C108.805 32.095 109.328 31.2771 109.328 30.3711C109.328 29.465 108.805 28.6472 108 28.2956" fill="var(--fill-0, #717067)"/>
<rect id="Capacity" x="84" y="25.463" width="21" height="9.16667" rx="2.5" fill="var(--fill-0, #717067)"/>
</g>
<path id="Wifi" fill-rule="evenodd" clip-rule="evenodd" d="M66.2705 26.5874C68.7576 26.5876 71.1496 27.5267 72.9522 29.2108C73.0879 29.3408 73.3048 29.3392 73.4385 29.2071L74.736 27.9203C74.8037 27.8533 74.8414 27.7626 74.8409 27.6682C74.8403 27.5738 74.8015 27.4835 74.733 27.4173C70.002 22.9616 62.5383 22.9616 57.8073 27.4173C57.7388 27.4834 57.6999 27.5737 57.6992 27.6681C57.6986 27.7625 57.7363 27.8532 57.8039 27.9203L59.1018 29.2071C59.2354 29.3394 59.4525 29.341 59.5882 29.2108C61.3909 27.5266 63.7832 26.5874 66.2705 26.5874ZM66.2672 30.8859C67.6245 30.8858 68.9334 31.407 69.9395 32.3482C70.0756 32.4818 70.2899 32.4789 70.4226 32.3417L71.7099 30.998C71.7777 30.9275 71.8153 30.8319 71.8143 30.7325C71.8133 30.6332 71.7738 30.5384 71.7047 30.4693C68.6408 27.5249 63.8961 27.5249 60.8323 30.4693C60.7631 30.5384 60.7236 30.6332 60.7227 30.7326C60.7218 30.832 60.7595 30.9276 60.8274 30.998L62.1144 32.3417C62.247 32.4789 62.4614 32.4818 62.5975 32.3482C63.6029 31.4076 64.9108 30.8865 66.2672 30.8859ZM68.7916 33.7312C68.7935 33.8385 68.7565 33.9419 68.6892 34.0171L66.5125 36.5173C66.4487 36.5907 66.3617 36.6321 66.2709 36.6321C66.1802 36.6321 66.0932 36.5907 66.0294 36.5173L63.8523 34.0171C63.7851 33.9419 63.7481 33.8384 63.7501 33.7311C63.7521 33.6238 63.7929 33.5222 63.8629 33.4502C65.253 32.112 67.2889 32.112 68.679 33.4502C68.7489 33.5222 68.7897 33.6239 68.7916 33.7312Z" fill="var(--fill-0, #717067)"/>
<path id="Cellular Connection" fill-rule="evenodd" clip-rule="evenodd" d="M50.2 25.1391C50.2 24.4944 49.7224 23.9717 49.1333 23.9717H48.0667C47.4776 23.9717 47 24.4944 47 25.1391V35.257C47 35.9018 47.4776 36.4245 48.0667 36.4245H49.1333C49.7224 36.4245 50.2 35.9018 50.2 35.257V25.1391ZM42.7659 26.4622H43.8326C44.4217 26.4622 44.8992 26.9975 44.8992 27.6577V35.229C44.8992 35.8893 44.4217 36.4245 43.8326 36.4245H42.7659C42.1768 36.4245 41.6992 35.8893 41.6992 35.229V27.6577C41.6992 26.9975 42.1768 26.4622 42.7659 26.4622ZM38.4341 29.1603H37.3674C36.7783 29.1603 36.3008 29.7024 36.3008 30.371V35.2138C36.3008 35.8824 36.7783 36.4245 37.3674 36.4245H38.4341C39.0232 36.4245 39.5008 35.8824 39.5008 35.2138V30.371C39.5008 29.7024 39.0232 29.1603 38.4341 29.1603ZM33.1333 31.6509H32.0667C31.4776 31.6509 31 32.1852 31 32.8443V35.2311C31 35.8902 31.4776 36.4245 32.0667 36.4245H33.1333C33.7224 36.4245 34.2 35.8902 34.2 35.2311V32.8443C34.2 32.1852 33.7224 31.6509 33.1333 31.6509Z" fill="var(--fill-0, #717067)"/>
</g>
</svg>
