<svg preserveAspectRatio="none" width="100%" height="100%" overflow="visible" style="display: block;" viewBox="0 0 98 64" fill="none" xmlns="http://www.w3.org/2000/svg">
<path id="Union" d="M78.5 0C89.2696 0 98 8.73045 98 19.5C98 30.2696 89.2696 39 78.5 39C72.756 39 67.5921 36.5163 64.0234 32.5645C60.7251 37.6414 55.0054 41 48.5 41C47.6511 41 46.8156 40.9418 45.9971 40.8311C45.9975 40.8873 46 40.9436 46 41C46 53.7025 35.7025 64 23 64C10.2975 64 0 53.7025 0 41C0 28.2975 10.2975 18 23 18C25.5506 18 28.0041 18.4152 30.2969 19.1816C31.8605 10.5479 39.4155 4 48.5 4C53.6804 4 58.3624 6.1304 61.7207 9.56152C65.1184 3.83742 71.3606 0 78.5 0Z" fill="var(--fill-0, #BBD884)"/>
</svg>
