<svg preserveAspectRatio="none" width="100%" height="100%" overflow="visible" style="display: block;" viewBox="0 0 102 50" fill="none" xmlns="http://www.w3.org/2000/svg">
<path id="Union" d="M82.5 0C93.2696 0 102 8.73045 102 19.5C102 30.2696 93.2696 39 82.5 39C77.3057 39 72.5866 36.9683 69.0918 33.6572C66.72 40.8267 59.9647 46 52 46C47.6444 46 43.6505 44.4525 40.5371 41.8779C36.3183 46.8459 30.0283 50 23 50C10.2975 50 0 39.7025 0 27C0 14.2975 10.2975 4 23 4C30.5975 4 37.3334 7.68452 41.5215 13.3633C44.473 11.2465 48.0908 10 52 10C56.4654 10 60.5502 11.6271 63.6963 14.3193C65.9655 6.06446 73.5243 0 82.5 0Z" fill="var(--fill-0, #A0CE46)"/>
</svg>
