<svg preserveAspectRatio="none" width="100%" height="100%" overflow="visible" style="display: block;" viewBox="0 0 21 25" fill="none" xmlns="http://www.w3.org/2000/svg">
<path id="path4" d="M15.5664 6.43262H15.5693C17.3363 6.5757 18.6639 7.20841 19.6035 8.30762C17.8983 9.51082 17.0264 11.1578 17.0449 13.2158V13.2168C17.0633 14.9442 17.695 16.4034 18.9326 17.5537C19.3704 17.9697 19.8513 18.3113 20.375 18.5811C20.286 18.822 20.196 19.0567 20.1006 19.2842C19.7363 20.128 19.3063 20.9022 18.8096 21.6123C18.1091 22.6138 17.5605 23.269 17.1641 23.6143L17.1543 23.624C16.5382 24.1922 15.9123 24.4546 15.2656 24.4707C14.7881 24.4692 14.1732 24.3316 13.4141 24.0186H13.4131C12.569 23.6733 11.7687 23.4922 11.0166 23.4922C10.2349 23.4923 9.41535 23.6717 8.56055 24.0176H8.55957C7.77035 24.3379 7.18161 24.484 6.76953 24.498H6.76562C6.18318 24.5229 5.55112 24.2719 4.8584 23.626L4.85254 23.6201L4.84668 23.6152C4.41115 23.2343 3.83611 22.5521 3.12012 21.5371V21.5361L2.84668 21.1348C2.22415 20.1789 1.69906 19.0889 1.27441 17.8594H1.27539C0.756775 16.3446 0.5 14.8881 0.5 13.4873C0.500058 11.8851 0.845086 10.5327 1.51367 9.41309L1.51562 9.4082C2.04226 8.50696 2.73884 7.80203 3.61035 7.2832C4.47956 6.76582 5.41537 6.50197 6.42871 6.48438C6.94125 6.48523 7.66338 6.64696 8.62305 7.00586V7.00684C9.11778 7.19304 9.53283 7.33595 9.86328 7.43359C10.1768 7.52623 10.4651 7.59375 10.6826 7.59375C10.7985 7.59371 10.9313 7.56699 11.0469 7.53906C11.1747 7.50817 11.3296 7.46335 11.5088 7.40723C11.8684 7.29461 12.3476 7.12706 12.9424 6.9082C14.0248 6.51786 14.8924 6.37532 15.5664 6.43262ZM15.2471 0.5625C15.2323 1.65575 14.8305 2.69036 14.0049 3.67383C13.093 4.74273 12.0664 5.35195 10.999 5.41309C11.0051 4.35831 11.4682 3.19662 12.3203 2.22949L12.3223 2.22754C12.7351 1.75235 13.2668 1.34848 13.9268 1.02148C14.3959 0.792213 14.8359 0.641884 15.2471 0.5625Z" fill="var(--fill-0, white)" stroke="var(--stroke-0, black)"/>
</svg>
