<svg preserveAspectRatio="none" width="100%" height="100%" overflow="visible" style="display: block;" viewBox="0 0 25.0002 24.546" fill="none" xmlns="http://www.w3.org/2000/svg">
<g id="Group">
<path id="Vector" opacity="0.25" d="M16.1435 2.49252C15.8792 2.36774 15.6321 2.25764 15.3678 2.14998C10.423 0.124077 5.32642 1.02692 4.13485 3.52505C3.67486 4.48906 3.81433 5.65616 4.42601 6.86975L0.244532 15.6487C-0.342686 16.8818 0.16379 18.3474 1.37737 18.9248L6.26597 21.2541L12.6838 24.3126C13.8949 24.89 15.3556 24.3591 15.9428 23.1283L20.1243 14.3494C21.4529 14.0607 22.4463 13.4344 22.9063 12.4679C24.1614 9.83764 21.3281 4.96373 16.1435 2.49252Z" fill="var(--fill-0, #543117)"/>
<g id="Group_2">
<path id="Vector_2" d="M8.06424 20.2193L3.17565 17.89C1.96207 17.3125 1.45559 15.8445 2.04281 14.6138L6.22429 5.83487C5.61016 4.62129 5.47314 3.45419 5.93313 2.49018C7.12469 -0.00794885 12.2213 -0.913244 17.1661 1.11511L8.06424 20.2193Z" fill="var(--fill-0, #CC9658)"/>
<g id="Group_3">
<path id="Vector_3" d="M8.06443 20.2191L14.4822 23.2775C15.6934 23.8549 17.1541 23.324 17.7413 22.0933L21.9228 13.3144C23.2514 13.0256 24.2447 12.3993 24.7047 11.4328C25.9599 8.80012 23.1241 3.92621 17.9419 1.455C17.6777 1.33021 17.4306 1.22011 17.1663 1.11245L8.06443 20.2191Z" fill="var(--fill-0, #C98C4F)"/>
<path id="Vector_4" d="M21.7882 10.2684C22.7522 8.24739 20.2541 5.04949 16.2121 3.12146C12.1701 1.19588 8.11092 1.27172 7.14935 3.29273C6.79702 4.0341 6.90957 4.93205 7.39157 5.86915L3.21743 14.6285C2.76723 15.5754 3.1685 16.7058 4.11294 17.156L12.931 21.3595C13.8754 21.8097 15.0083 21.4084 15.4585 20.4615L19.6326 11.7022C20.6652 11.4869 21.4359 11.0098 21.7882 10.2684Z" fill="var(--fill-0, #E7B97B)"/>
</g>
<path id="Vector_5" d="M8.52188 19.2578L4.11285 17.156C3.16596 16.7058 2.76469 15.573 3.21734 14.6286L7.39148 5.86923C6.90947 4.93212 6.79448 4.03417 7.14925 3.29281C8.11082 1.2718 12.17 1.19595 16.212 3.12153L8.52188 19.2578Z" fill="var(--fill-0, #F6CD95)"/>
</g>
</g>
</svg>
