<svg width="240" height="240" viewBox="0 0 240 240" xmlns="http://www.w3.org/2000/svg">
  <defs>
    <style>
      .bg-hex { fill: none; stroke: #C3C3C3; stroke-width: 1.5; }
      .axis { stroke: #C3C3C3; stroke-width: 1.5; }
      .data-hex { fill: rgba(251,116,89,0.5); stroke: none; }
    </style>
  </defs>
  
  <!-- Outer Hexagon (R=80) -->
  <polygon class="bg-hex" points="120,40 189.28,80 189.28,160 120,200 50.72,160 50.72,80"/>
  <!-- Inner Hexagon (R=40) -->
  <polygon class="bg-hex" points="120,80 154.64,100 154.64,140 120,160 85.36,140 85.36,100"/>
  
  <!-- Axes -->
  <line class="axis" x1="120" y1="120" x2="120" y2="40"/>
  <line class="axis" x1="120" y1="120" x2="189.28" y2="80"/>
  <line class="axis" x1="120" y1="120" x2="189.28" y2="160"/>
  <line class="axis" x1="120" y1="120" x2="120" y2="200"/>
  <line class="axis" x1="120" y1="120" x2="50.72" y2="160"/>
  <line class="axis" x1="120" y1="120" x2="50.72" y2="80"/>
  
  <!-- Data Polygon matched to user image -->
  <polygon class="data-hex" points="120,48 178.8,86 168.5,148 120,148 85.36,140 78.4,96"/>
</svg>
