<svg width="119" height="119" viewBox="0 0 119 119" fill="none" xmlns="http://www.w3.org/2000/svg">
<path d="M59.5 5.22783C59.5 2.2141 57.0517 -0.254978 54.0506 0.0210152C43.5411 0.987524 33.4419 4.73666 24.8138 10.9273C14.7028 18.1818 7.12094 28.4239 3.13491 40.2125C-0.851118 52.0011 -1.04064 64.7427 2.59301 76.6447C6.22666 88.5466 13.5006 99.0097 23.3913 106.562C33.282 114.114 45.2916 118.375 57.7304 118.745C70.1691 119.115 82.4108 115.576 92.7331 108.625C103.055 101.674 110.938 91.6623 115.273 79.9975C118.972 70.0433 119.929 59.3133 118.093 48.9203C117.569 45.9526 114.542 44.2411 111.634 45.035C108.727 45.8288 107.046 48.8283 107.51 51.8062C108.781 59.9833 107.947 68.3823 105.043 76.1958C101.503 85.721 95.0662 93.8966 86.6373 99.5723C78.2085 105.248 68.2121 108.138 58.055 107.836C47.8978 107.534 38.091 104.054 30.0145 97.8875C21.9379 91.7207 15.9982 83.1768 13.0311 73.4579C10.0639 63.7391 10.2187 53.3345 13.4736 43.7083C16.7285 34.082 22.9197 25.7185 31.176 19.7946C37.9487 14.9353 45.8312 11.9182 54.0545 10.9907C57.0492 10.653 59.5 8.24156 59.5 5.22783Z" fill="#FFDA46"/>
</svg>
