<svg preserveAspectRatio="none" width="100%" height="100%" overflow="visible" style="display: block;" viewBox="0 0 119 118.771" fill="none" xmlns="http://www.w3.org/2000/svg">
<path id="Ellipse 293" d="M59.5 5.22792C59.5 2.21419 57.0517 -0.254893 54.0506 0.0210998C43.5411 0.987609 33.4419 4.73675 24.8138 10.9274C14.7028 18.1819 7.12094 28.424 3.13491 40.2126C-0.851117 52.0012 -1.04064 64.7428 2.59301 76.6448C6.22666 88.5467 13.5006 99.0098 23.3913 106.562C33.282 114.114 45.2916 118.375 57.7304 118.745C70.1691 119.115 82.4108 115.576 92.7331 108.625C103.055 101.674 110.938 91.6624 115.273 79.9976C118.972 70.0434 119.929 59.3134 118.093 48.9204C117.569 45.9526 114.542 44.2412 111.634 45.0351V45.0351C108.727 45.8289 107.046 48.8284 107.51 51.8063C108.781 59.9834 107.947 68.3824 105.043 76.1958C101.503 85.7211 95.0662 93.8967 86.6373 99.5724C78.2085 105.248 68.2121 108.138 58.055 107.836C47.8978 107.534 38.091 104.054 30.0145 97.8876C21.9379 91.7208 15.9982 83.1769 13.0311 73.458C10.0639 63.7392 10.2187 53.3346 13.4736 43.7083C16.7285 34.0821 22.9197 25.7186 31.176 19.7947C37.9487 14.9354 45.8312 11.9183 54.0545 10.9908C57.0492 10.6531 59.5 8.24164 59.5 5.22792V5.22792Z" fill="var(--fill-0, #FFDA46)"/>
</svg>
