<svg preserveAspectRatio="none" width="100%" height="100%" overflow="visible" style="display: block;" viewBox="0 0 22.0892 54.9886" fill="none" xmlns="http://www.w3.org/2000/svg">
<g id="Group">
<path id="Vector" d="M17.2786 0.185032C17.6086 0.788023 15.2111 2.69271 11.9206 4.4299C8.63499 6.17187 5.6988 7.09071 5.37363 6.48772C5.04361 5.88473 7.4411 3.98005 10.7316 2.24286C14.0172 0.500885 16.9485 -0.417959 17.2786 0.185032Z" fill="var(--fill-0, #E7B97B)"/>
<path id="Vector_2" d="M19.1859 10.6847C19.5159 11.2877 15.8469 13.8624 10.9985 16.4323C6.14529 19.0022 1.94727 20.591 1.61725 19.988C1.28723 19.385 4.95626 16.8104 9.80461 14.2405C14.6578 11.6754 18.8558 10.0817 19.1859 10.6847Z" fill="var(--fill-0, #E7B97B)"/>
<path id="Vector_3" d="M22.0493 21.6678C22.5637 22.6106 18.0502 25.9844 11.974 29.2004C5.89292 32.4211 0.549541 34.2636 0.0399535 33.3208C-0.474487 32.378 4.039 29.0042 10.1152 25.7882C16.1914 22.5675 21.5348 20.725 22.0493 21.6678Z" fill="var(--fill-0, #E7B97B)"/>
<path id="Vector_4" d="M4.81066 54.8036C4.48064 54.2006 6.87813 52.2959 10.1686 50.5587C13.4542 48.8167 16.3856 47.8979 16.7156 48.5009C17.0456 49.1039 14.6481 51.0085 11.3576 52.7457C8.07202 54.4877 5.13582 55.4066 4.81066 54.8036Z" fill="var(--fill-0, #E7B97B)"/>
<path id="Vector_5" d="M2.90335 44.3039C2.57333 43.7009 6.24236 41.1262 11.0907 38.5563C15.9439 35.9864 20.142 34.3976 20.472 35.0006C20.802 35.6036 17.133 38.1782 12.2846 40.7481C7.43139 43.3132 3.22851 44.9069 2.90335 44.3039Z" fill="var(--fill-0, #E7B97B)"/>
</g>
</svg>
