<svg width="73" height="94" viewBox="0 0 73 94" fill="none" xmlns="http://www.w3.org/2000/svg">
<g clip-path="url(#clip0_1016_1189)">
<path opacity="0.2" d="M65.0205 24.1887C60.6944 20.795 51.9985 24.0338 42.9289 31.6116C45.7441 17.8048 44.0957 6.61191 38.2341 4.56073C30.8284 1.97194 19.5194 14.9446 12.9757 33.5342C6.42732 52.1226 7.12233 69.2927 14.5233 71.8803C15.5383 72.2365 16.6303 72.2863 17.7705 72.0815C17.5616 75.6175 18.3794 78.3783 20.3603 79.9297C26.5091 84.7531 41.492 76.1834 53.8252 60.7949C66.155 45.4005 71.1693 29.012 65.0205 24.1887Z" fill="#543117"/>
<path d="M38.288 46.9463C31.7397 65.5347 20.4319 78.5027 13.0309 75.9152C5.62985 73.3277 4.93484 56.1576 11.4832 37.5692C18.0269 18.9795 29.3359 6.00687 36.7404 8.60029C44.1414 11.1878 44.8317 28.3567 38.288 46.9463Z" fill="#C4773D"/>
<path d="M37.9753 17.4925C38.1381 18.1604 35.3293 19.3797 31.7013 20.206C28.0768 21.0383 25.0028 21.1659 24.8448 20.4993C24.6821 19.8314 27.4909 18.6121 31.1188 17.7858C34.7434 16.9535 37.8126 16.8247 37.9753 17.4925Z" fill="#E7B97B"/>
<path d="M37.1001 28.1281C37.2628 28.796 33.0524 30.3333 27.7041 31.5608C22.3512 32.787 17.885 33.2352 17.7222 32.5673C17.5595 31.8994 21.7699 30.3621 27.1182 29.1346C32.4699 27.913 36.9374 27.4603 37.1001 28.1281Z" fill="#E7B97B"/>
<path d="M37.0233 39.4781C37.2762 40.5219 32.0433 42.6126 25.3418 44.1463C18.6343 45.6834 12.9961 46.0802 12.7479 45.0376C12.495 43.9938 17.7279 41.9031 24.4295 40.3694C31.1322 38.831 36.7704 38.4343 37.0233 39.4781Z" fill="#E7B97B"/>
<path d="M11.7959 67.0231C11.6332 66.3552 14.4419 65.1359 18.0699 64.3096C21.6944 63.4773 24.7637 63.3485 24.9264 64.0163C25.0891 64.6842 22.2803 65.9035 18.6524 66.7298C15.0278 67.5621 11.9539 67.6897 11.7959 67.0231Z" fill="#E7B97B"/>
<path d="M12.6712 56.3875C12.5084 55.7196 16.7188 54.1823 22.0671 52.9548C27.4201 51.7286 31.8863 51.2804 32.049 51.9483C32.2117 52.6162 28.0013 54.1535 22.653 55.381C17.3013 56.6026 12.8292 57.0541 12.6712 56.3875Z" fill="#E7B97B"/>
<path d="M52.3281 64.8285C39.9983 80.2229 25.0166 88.788 18.8679 83.9646C12.7192 79.1412 17.7335 62.7528 30.0632 47.3584C42.393 31.964 57.3759 23.3943 63.5234 28.2223C69.6768 33.0469 64.6625 49.4354 52.3281 64.8285Z" fill="#C98C4F"/>
<path d="M61.7607 36.995C61.6938 37.6757 58.6348 37.9163 54.9303 37.5281C51.2258 37.1399 48.277 36.2755 48.3438 35.5948C48.4107 34.9141 51.4697 34.6735 55.1742 35.0617C58.8799 35.4452 61.8275 36.3143 61.7607 36.995Z" fill="#E7B97B"/>
<path d="M57.4184 46.7313C57.3516 47.412 52.8655 47.5031 47.3956 46.9342C41.9304 46.3665 37.5511 45.3467 37.6179 44.666C37.6847 43.9853 42.1708 43.8943 47.6407 44.4631C53.1106 45.032 57.4865 46.046 57.4184 46.7313Z" fill="#E7B97B"/>
<path d="M53.5977 57.3901C53.4927 58.4569 47.8515 58.7339 41.0026 58.0234C34.155 57.3083 28.6875 55.8681 28.7925 54.8013C28.8962 53.7391 34.5387 53.4575 41.3876 54.1679C48.2398 54.8843 53.7074 56.3245 53.5977 57.3901Z" fill="#E7B97B"/>
<path d="M20.6354 75.1931C20.7022 74.5125 23.7612 74.2719 27.4657 74.66C31.1702 75.0482 34.119 75.9127 34.0522 76.5933C33.9854 77.274 30.9263 77.5146 27.2218 77.1264C23.5114 76.7416 20.5626 75.8772 20.6354 75.1931Z" fill="#E7B97B"/>
<path d="M24.9764 65.4614C25.0432 64.7808 29.5339 64.691 34.9991 65.2586C40.4678 65.8321 44.8437 66.8461 44.7769 67.5268C44.71 68.2074 40.2239 68.2985 34.7541 67.7296C29.2854 67.1561 24.9048 66.1409 24.9764 65.4614Z" fill="#E7B97B"/>
</g>
<defs>
<clipPath id="clip0_1016_1189">
<rect width="53.5364" height="82.2004" fill="white" transform="translate(21.275) rotate(15)"/>
</clipPath>
</defs>
</svg>
