<svg preserveAspectRatio="none" width="100%" height="100%" overflow="visible" style="display: block;" viewBox="0 0 328 127" fill="none" xmlns="http://www.w3.org/2000/svg">
<g id="Group 9053">
<path id="Vector 178" d="M42.7312 48.6816C8.11352 47.6775 2.70451 79.8081 0 87.8408V127H324V4C322.377 6.00816 288.814 30.6015 274.778 34.1224C254.765 39.1429 225 34.1224 180.12 34.1224C138.362 34.1224 128 71 101.5 71C77.0303 71 77.3489 49.6857 42.7312 48.6816Z" fill="url(#paint0_linear_1199_1246)"/>
<circle id="Ellipse 416" cx="323" cy="5" r="5" fill="var(--fill-0, #FA534C)"/>
<path id="Intersect" d="M325.056 5.25687C324.824 5.54394 324.458 5.87128 324.135 6.15043C323.765 6.4696 323.286 6.86238 322.718 7.31351C321.58 8.21779 320.041 9.39159 318.209 10.7452C314.543 13.4537 309.667 16.9079 304.401 20.4092C299.139 23.9086 293.466 27.4697 288.21 30.3838C282.997 33.2739 278.044 35.6145 274.265 36.5625C263.941 39.1523 251.221 39.1305 235.693 38.5039C220.08 37.8739 201.506 36.6221 179.12 36.6221C158.948 36.6221 146.372 45.4765 135.364 54.6006C129.903 59.127 124.66 63.8753 119.178 67.418C113.624 71.0065 107.632 73.5 100.5 73.5C87.5081 73.5 80.9617 67.7228 73.7246 62.3203C70.112 59.6236 66.3025 56.9859 61.3184 54.9434C56.3428 52.9044 50.112 51.4255 41.6729 51.1807C25.1487 50.7015 15.3596 58.2264 9.2832 66.8536C3.90979 74.4827 1.47786 82.8887 0 87.7256V75.5664C1.49932 72.0224 3.44713 68.1935 6.0127 64.5508C12.7213 55.026 23.6959 46.6579 41.7891 47.1827C50.6586 47.4399 57.3704 49.0024 62.8359 51.2422C68.2925 53.4784 72.4237 56.3571 76.1172 59.1143C83.4927 64.62 89.0223 69.5 100.5 69.5C106.618 69.5 111.859 67.3837 117.007 64.0577C122.225 60.6859 127.15 56.2143 132.812 51.5215C144.049 42.2069 157.534 32.6221 179.12 32.6221C201.614 32.6221 220.363 33.8818 235.854 34.5069C251.432 35.1354 263.602 35.1132 273.291 32.6827C276.53 31.8702 281.098 29.7537 286.271 26.8858C291.4 24.0419 296.976 20.5432 302.187 17.0782C307.394 13.6151 312.216 10.1996 315.832 7.52836C317.641 6.19217 319.139 5.04774 320.229 4.18168C320.775 3.74787 321.209 3.39174 321.522 3.12113C321.883 2.81064 321.974 2.70706 321.944 2.7432L325.056 5.25687Z" fill="url(#paint1_linear_1199_1246)"/>
</g>
<defs>
<linearGradient id="paint0_linear_1199_1246" x1="162" y1="4" x2="162" y2="127" gradientUnits="userSpaceOnUse">
<stop offset="0.153846" stop-color="#FA534C" stop-opacity="0.7"/>
<stop offset="1" stop-color="white" stop-opacity="0.3"/>
</linearGradient>
<linearGradient id="paint1_linear_1199_1246" x1="0" y1="45.231" x2="325.056" y2="45.231" gradientUnits="userSpaceOnUse">
<stop offset="0.350962" stop-color="#FFCFCF"/>
<stop offset="1" stop-color="#FA534C"/>
</linearGradient>
</defs>
</svg>
