<svg preserveAspectRatio="none" width="100%" height="100%" overflow="visible" style="display: block;" viewBox="0 0 28.895 10.6017" fill="none" xmlns="http://www.w3.org/2000/svg">
<g id="Group">
<path id="Vector" d="M4.0141 3.34795C11.7825 6.94977 20.137 7.69571 27.8948 6.01201" stroke="var(--stroke-0, #F4C064)" stroke-width="2" stroke-miterlimit="10" stroke-linecap="round" stroke-linejoin="round"/>
<path id="Vector_2" d="M4.66412 1.12088C5.815 1.65369 6.31051 3.0177 5.7777 4.16325C5.24489 5.3088 3.88088 5.80964 2.73534 5.27683C1.58979 4.74402 -0.445562 2.66604 0.0872518 1.52049C0.614737 0.374942 3.51324 0.588067 4.66412 1.12088Z" fill="var(--fill-0, #C4773D)"/>
<path id="Vector_3" d="M5.77773 4.16856C5.24492 5.31411 3.88091 5.81496 2.73536 5.28214C1.58982 4.74933 -0.445532 2.67136 0.0872815 1.52581L5.77773 4.16856Z" fill="var(--fill-0, #F4C064)"/>
<path id="Vector_4" d="M6.83266 4.72794C7.46671 5.82553 8.86801 6.1985 9.96561 5.56445C11.0632 4.93041 11.4362 3.52911 10.8021 2.43151C10.1681 1.33391 7.9196 -0.504292 6.82201 0.129756C5.72441 0.763804 6.19862 3.63034 6.83266 4.72794Z" fill="var(--fill-0, #F4C064)"/>
<path id="Vector_5" d="M9.96563 5.56448C11.0632 4.93044 11.4362 3.52914 10.8021 2.43154C10.1681 1.33395 7.91962 -0.504262 6.82203 0.129786L9.96563 5.56448Z" fill="var(--fill-0, #C4773D)"/>
<path id="Vector_6" d="M7.01916 4.22711C8.21266 3.80618 9.52338 4.42958 9.9443 5.62308C10.3652 6.81658 9.74183 8.1273 8.54833 8.54822C7.35483 8.96915 4.451 8.91054 4.02475 7.71703C3.60382 6.52353 5.82566 4.64803 7.01916 4.22711Z" fill="var(--fill-0, #C4773D)"/>
<path id="Vector_7" d="M9.94434 5.6231C10.3653 6.8166 9.74187 8.12732 8.54836 8.54824C7.35486 8.96917 4.45103 8.91056 4.02478 7.71705L9.94434 5.6231Z" fill="var(--fill-0, #F4C064)"/>
<path id="Vector_8" d="M12.278 6.35307C12.9707 7.41337 14.388 7.71175 15.4483 7.01909C16.5086 6.32643 16.8069 4.90915 16.1143 3.84885C15.4216 2.78855 13.0772 1.07289 12.0169 1.76022C10.962 2.45288 11.5907 5.29278 12.278 6.35307Z" fill="var(--fill-0, #F4C064)"/>
<path id="Vector_9" d="M15.4536 7.0191C16.5139 6.32644 16.8123 4.90915 16.1197 3.84885C15.427 2.78856 13.0826 1.07289 12.0223 1.76022L15.4536 7.0191Z" fill="var(--fill-0, #C4773D)"/>
<path id="Vector_10" d="M12.4379 5.84694C13.6047 5.36208 14.9474 5.9162 15.4323 7.08307C15.9172 8.24993 15.363 9.59262 14.1962 10.0775C13.0293 10.5623 10.1201 10.6582 9.63528 9.49138C9.15042 8.31919 11.2657 6.3318 12.4379 5.84694Z" fill="var(--fill-0, #C4773D)"/>
<path id="Vector_11" d="M15.4323 7.08305C15.9171 8.24991 15.363 9.5926 14.1961 10.0775C13.0293 10.5623 10.1201 10.6582 9.63527 9.49136L15.4323 7.08305Z" fill="var(--fill-0, #F4C064)"/>
<path id="Vector_12" d="M18.1496 6.48624C18.9755 7.4453 20.4248 7.55186 21.3838 6.726C22.3429 5.90014 22.4494 4.45089 21.6236 3.49183C20.7977 2.53276 18.2455 1.14212 17.2865 1.96798C16.3274 2.79917 17.3238 5.52718 18.1496 6.48624Z" fill="var(--fill-0, #F4C064)"/>
<path id="Vector_13" d="M21.3785 6.73133C22.3375 5.90547 22.4441 4.45622 21.6182 3.49715C20.7924 2.53809 18.2402 1.14744 17.2811 1.9733L21.3785 6.73133Z" fill="var(--fill-0, #C4773D)"/>
<path id="Vector_14" d="M18.2349 5.96415C19.3272 5.32478 20.7338 5.69775 21.3679 6.79534C22.0019 7.88761 21.6343 9.28891 20.5367 9.92829C19.4444 10.5623 16.5779 11.0472 15.9385 9.9496C15.3045 8.85733 17.1427 6.5982 18.2349 5.96415Z" fill="var(--fill-0, #C4773D)"/>
<path id="Vector_15" d="M21.3678 6.79527C22.0019 7.88754 21.6342 9.28884 20.5366 9.92822C19.4444 10.5623 16.5778 11.0471 15.9385 9.94953L21.3678 6.79527Z" fill="var(--fill-0, #F4C064)"/>
</g>
</svg>
