<svg preserveAspectRatio="none" width="100%" height="100%" overflow="visible" style="display: block;" viewBox="0 0 23.0124 29.6787" fill="none" xmlns="http://www.w3.org/2000/svg">
<g id="Group">
<path id="Vector" d="M3.47643 4.56195C4.94026 15.7373 12.296 24.6804 22.0121 28.6785" stroke="var(--stroke-0, #F4C064)" stroke-width="2" stroke-miterlimit="10" stroke-linecap="round" stroke-linejoin="round"/>
<path id="Vector_2" d="M5.26502 3.14842C5.40683 4.22799 4.64747 5.2115 3.5679 5.35331C2.48833 5.49511 1.50024 4.73576 1.36301 3.65618C1.2212 2.57661 1.79301 0.147579 2.86801 0.00577062C3.94758 -0.126889 5.12321 2.07342 5.26502 3.14842Z" fill="var(--fill-0, #C4773D)"/>
<path id="Vector_3" d="M3.5679 5.35783C2.48833 5.49964 1.50024 4.74028 1.36301 3.66071C1.2212 2.58114 1.79301 0.152105 2.86801 0.0102971L3.5679 5.35783Z" fill="var(--fill-0, #F4C064)"/>
<path id="Vector_4" d="M3.64571 6.37797C3.14252 7.3386 3.51305 8.52796 4.47826 9.03115C5.43889 9.53434 6.62825 9.16381 7.13144 8.1986C7.63463 7.23339 7.93654 4.75861 6.97134 4.25542C6.0107 3.75681 4.1489 5.41733 3.64571 6.37797Z" fill="var(--fill-0, #F4C064)"/>
<path id="Vector_5" d="M4.47821 9.03574C5.43884 9.53893 6.6282 9.1684 7.13139 8.20319C7.63458 7.23798 7.9365 4.7632 6.97129 4.26001L4.47821 9.03574Z" fill="var(--fill-0, #C4773D)"/>
<path id="Vector_6" d="M4.09403 6.28196C4.94945 6.9544 5.09583 8.1895 4.42339 9.04493C3.75094 9.90035 2.51584 10.0467 1.66042 9.37886C0.804995 8.70642 -0.485001 6.57015 0.187444 5.7193C0.859889 4.86388 3.2386 5.60951 4.09403 6.28196Z" fill="var(--fill-0, #C4773D)"/>
<path id="Vector_7" d="M4.42335 9.04485C3.7509 9.90027 2.5158 10.0467 1.66038 9.37879C0.804956 8.70634 -0.48504 6.57007 0.187405 5.71922L4.42335 9.04485Z" fill="var(--fill-0, #F4C064)"/>
<path id="Vector_8" d="M4.96772 11.076C4.51485 12.064 4.94943 13.2305 5.93751 13.6834C6.92559 14.1363 8.09207 13.7017 8.54495 12.7136C8.99782 11.7255 9.16707 9.23702 8.17899 8.78415C7.19091 8.33128 5.42059 10.0879 4.96772 11.076Z" fill="var(--fill-0, #F4C064)"/>
<path id="Vector_9" d="M5.94208 13.6834C6.93017 14.1363 8.09665 13.7017 8.54952 12.7136C9.00239 11.7255 9.17165 9.23702 8.18357 8.78414L5.94208 13.6834Z" fill="var(--fill-0, #C4773D)"/>
<path id="Vector_10" d="M5.4114 10.957C6.29884 11.5837 6.51384 12.8096 5.88714 13.6971C5.26044 14.5845 4.03449 14.7995 3.14704 14.1774C2.2596 13.5507 0.855242 11.4876 1.47737 10.6002C2.10407 9.70817 4.51938 10.3303 5.4114 10.957Z" fill="var(--fill-0, #C4773D)"/>
<path id="Vector_11" d="M5.88722 13.6971C5.26052 14.5846 4.03457 14.7996 3.14712 14.1774C2.25968 13.5507 0.855321 11.4877 1.47745 10.6002L5.88722 13.6971Z" fill="var(--fill-0, #F4C064)"/>
<path id="Vector_12" d="M7.566 15.3943C7.25036 16.4327 7.83589 17.5351 8.8743 17.8507C9.9127 18.1664 11.0151 17.5808 11.3308 16.5424C11.6464 15.504 11.4863 13.011 10.4433 12.6953C9.40493 12.3751 7.88164 14.3559 7.566 15.3943Z" fill="var(--fill-0, #F4C064)"/>
<path id="Vector_13" d="M8.87433 17.8507C9.91273 18.1664 11.0152 17.5808 11.3308 16.5424C11.6465 15.504 11.4863 13.0109 10.4434 12.6953L8.87433 17.8507Z" fill="var(--fill-0, #C4773D)"/>
<path id="Vector_14" d="M7.98686 15.2158C8.95207 15.719 9.32717 16.9038 8.82398 17.869C8.32537 18.8342 7.13601 19.2093 6.1708 18.7061C5.20559 18.2029 3.54049 16.3457 4.04368 15.3805C4.54687 14.4198 7.02165 14.7172 7.98686 15.2158Z" fill="var(--fill-0, #C4773D)"/>
<path id="Vector_15" d="M8.82394 17.869C8.32533 18.8342 7.13597 19.2093 6.17076 18.7061C5.20555 18.2029 3.54045 16.3457 4.04364 15.3805L8.82394 17.869Z" fill="var(--fill-0, #F4C064)"/>
</g>
</svg>
