<svg preserveAspectRatio="none" width="100%" height="100%" overflow="visible" style="display: block;" viewBox="0 0 10.6502 29.9246" fill="none" xmlns="http://www.w3.org/2000/svg">
<g id="Group">
<path id="Vector" d="M5.65902 4.43155C7.06804 13.1609 5.46638 21.6811 1.61908 28.9244" stroke="var(--stroke-0, #F4C064)" stroke-width="2" stroke-miterlimit="10" stroke-linecap="round" stroke-linejoin="round"/>
<path id="Vector_2" d="M3.26474 4.45361C3.47389 5.74705 4.69028 6.62219 5.97821 6.41304C7.26615 6.20389 8.14679 4.9875 7.93764 3.69957C7.72848 2.40613 6.2369 -0.197266 4.94346 0.0118861C3.65552 0.221038 3.05559 3.16017 3.26474 4.45361Z" fill="var(--fill-0, #C4773D)"/>
<path id="Vector_3" d="M5.97821 6.41304C7.26614 6.20389 8.14678 4.9875 7.93763 3.69957C7.72848 2.40613 6.23689 -0.197266 4.94345 0.0118861L5.97821 6.41304Z" fill="var(--fill-0, #F4C064)"/>
<path id="Vector_4" d="M6.24239 7.61835C7.15606 8.55403 7.13404 10.0511 6.19836 10.9648C5.26268 11.8784 3.76009 11.8564 2.85193 10.9207C1.93826 9.98507 0.738391 7.23307 1.67958 6.31941C2.60975 5.41125 5.32873 6.68267 6.24239 7.61835Z" fill="var(--fill-0, #F4C064)"/>
<path id="Vector_5" d="M6.19292 10.9704C5.25724 11.8841 3.75465 11.8621 2.84649 10.9264C1.93282 9.99069 0.732949 7.23869 1.67413 6.32503L6.19292 10.9704Z" fill="var(--fill-0, #C4773D)"/>
<path id="Vector_6" d="M5.69203 7.66238C4.93798 8.73016 5.19116 10.2052 6.25894 10.9593C7.32671 11.7133 8.80179 11.4601 9.56134 10.3924C10.3154 9.32459 11.0694 6.41848 10.0017 5.66443C8.93388 4.91038 6.44607 6.5946 5.69203 7.66238Z" fill="var(--fill-0, #C4773D)"/>
<path id="Vector_7" d="M6.25892 10.9648C7.32669 11.7188 8.80177 11.4657 9.56132 10.3979C10.3154 9.33011 11.0694 6.424 10.0016 5.66995L6.25892 10.9648Z" fill="var(--fill-0, #F4C064)"/>
<path id="Vector_8" d="M6.33049 13.4912C7.18912 14.4764 7.09005 15.9735 6.10483 16.8321C5.11961 17.6907 3.62253 17.5916 2.7639 16.6064C1.90528 15.6212 0.854014 12.8087 1.83373 11.95C2.82445 11.0914 5.47187 12.5059 6.33049 13.4912Z" fill="var(--fill-0, #F4C064)"/>
<path id="Vector_9" d="M6.11034 16.8322C5.12512 17.6908 3.62804 17.5917 2.76941 16.6065C1.91079 15.6213 0.859524 12.8087 1.83924 11.9501L6.11034 16.8322Z" fill="var(--fill-0, #C4773D)"/>
<path id="Vector_10" d="M5.78561 13.5077C4.97652 14.5314 5.15265 16.023 6.17639 16.8321C7.20013 17.6412 8.69172 17.465 9.5008 16.4413C10.3099 15.4121 11.2181 12.55 10.1943 11.7409C9.16506 10.9318 6.59469 12.4784 5.78561 13.5077Z" fill="var(--fill-0, #C4773D)"/>
<path id="Vector_11" d="M6.17634 16.8321C7.20009 17.6412 8.69167 17.465 9.50076 16.4413C10.3098 15.412 11.218 12.55 10.1943 11.7409L6.17634 16.8321Z" fill="var(--fill-0, #F4C064)"/>
<path id="Vector_12" d="M4.82239 19.3639C5.54342 20.4537 5.2462 21.9233 4.15641 22.6443C3.06662 23.3653 1.59705 23.0681 0.876025 21.9783C0.155001 20.8885 -0.516487 17.9604 0.573305 17.2394C1.6631 16.5183 4.10137 18.2741 4.82239 19.3639Z" fill="var(--fill-0, #F4C064)"/>
<path id="Vector_13" d="M4.15641 22.6443C3.06662 23.3653 1.59705 23.0681 0.876025 21.9783C0.155001 20.8885 -0.516487 17.9604 0.573305 17.2394L4.15641 22.6443Z" fill="var(--fill-0, #C4773D)"/>
<path id="Vector_14" d="M4.27749 19.3035C3.33631 20.2116 3.31429 21.7142 4.22245 22.6499C5.13061 23.5911 6.6277 23.6131 7.56888 22.7049C8.51007 21.7968 9.78699 19.0778 8.87883 18.1421C7.97067 17.2009 5.21868 18.3953 4.27749 19.3035Z" fill="var(--fill-0, #C4773D)"/>
<path id="Vector_15" d="M4.22247 22.6499C5.13062 23.5911 6.62771 23.6131 7.5689 22.7049C8.51008 21.7968 9.78701 19.0778 8.87885 18.1421L4.22247 22.6499Z" fill="var(--fill-0, #F4C064)"/>
</g>
</svg>
