<svg preserveAspectRatio="none" width="100%" height="100%" overflow="visible" style="display: block;" viewBox="0 0 111 69" fill="none" xmlns="http://www.w3.org/2000/svg">
<path id="Union" d="M45 0C53.2118 0 60.3212 4.71409 63.7734 11.583C68.4936 8.67748 74.0506 7 80 7C97.1208 7 111 20.8792 111 38C111 55.1208 97.1208 69 80 69C64.0894 69 50.9801 57.0134 49.2061 41.5781C47.8471 41.8544 46.4405 42 45 42C43.5508 42 42.1361 41.8528 40.7695 41.5732C39.2865 51.4371 30.7773 59 20.5 59C9.17816 59 0 49.8218 0 38.5C0 27.1782 9.17816 18 20.5 18C21.752 18 22.9779 18.1122 24.168 18.3271C25.4809 7.99123 34.3075 0 45 0Z" fill="var(--fill-0, #BBD884)"/>
</svg>
