<svg preserveAspectRatio="none" width="100%" height="100%" overflow="visible" style="display: block;" viewBox="0 0 16.0002 20.01" fill="none" xmlns="http://www.w3.org/2000/svg">
<path id="Vector" d="M8.00009 0C3.59009 0 9.41395e-05 3.59 9.41395e-05 8C-0.0299059 14.44 7.12009 19.6 7.42009 19.82C7.59009 19.94 7.80009 20.01 8.00009 20.01C8.20009 20.01 8.41009 19.95 8.58009 19.82C8.88009 19.6 16.0301 14.45 16.0001 8C16.0001 3.59 12.4101 0 8.00009 0ZM8.00009 12C5.79009 12 4.00009 10.21 4.00009 8C4.00009 5.79 5.79009 4 8.00009 4C10.2101 4 12.0001 5.79 12.0001 8C12.0001 10.21 10.2101 12 8.00009 12Z" fill="var(--fill-0, white)"/>
</svg>
