<svg preserveAspectRatio="none" width="100%" height="100%" overflow="visible" style="display: block;" viewBox="0 0 103 60" fill="none" xmlns="http://www.w3.org/2000/svg">
<path id="Union" d="M48.5 0C53.9672 0 58.8798 2.3721 62.2666 6.14258C66.378 3.51966 71.2616 2 76.5 2C91.1355 2 103 13.8645 103 28.5C103 43.1355 91.1355 55 76.5 55C64.7582 55 54.8021 47.3627 51.3232 36.7852C50.4027 36.9261 49.46 37 48.5 37C47.6511 37 46.8156 36.9418 45.9971 36.8311C45.9975 36.8873 46 36.9436 46 37C46 49.7025 35.7025 60 23 60C10.2975 60 0 49.7025 0 37C0 24.2975 10.2975 14 23 14C25.5506 14 28.0041 14.4152 30.2969 15.1816C31.8605 6.54795 39.4155 0 48.5 0Z" fill="var(--fill-0, #7CA135)"/>
</svg>
